<svg width="52" height="52" viewBox="0 0 52 52" fill="none" xmlns="http://www.w3.org/2000/svg">
<path fill-rule="evenodd" clip-rule="evenodd" d="M20.2076 25.5667L19.9033 24.9423L19.5871 24.3376L19.271 23.7566L18.9469 23.1994L18.6189 22.6658L18.2829 22.156L17.947 21.6738L17.5992 21.2154L17.2514 20.7885L16.8957 20.3854L16.627 20.1127L16.6625 19.9902L16.7376 19.7649L16.8088 19.5475L16.8838 19.3341L16.9589 19.1286L17.034 18.931L17.1091 18.7373L17.1842 18.5516L17.2593 18.3698L17.3383 18.1998L17.4134 18.0338L17.4925 17.8758L17.5676 17.7256L17.6466 17.5793L17.7257 17.445L17.8008 17.3185L17.8798 17.196L17.9588 17.0814L18.0339 16.9786L18.113 16.8838L18.1881 16.7968L18.2671 16.7178L18.3382 16.6466L18.4133 16.5834L18.4845 16.532L18.5517 16.4885L18.6189 16.453L18.6781 16.4253L18.7374 16.4055L18.7927 16.3897L18.8441 16.3818H18.8757L19.0457 16.4055L19.2235 16.4846L19.429 16.6308L19.6504 16.8561L19.8756 17.1525L20.1049 17.5161L20.3341 17.9469L20.5633 18.437L20.7886 18.9863L21.0099 19.591L21.2273 20.251L21.4407 20.9624L21.6541 21.7212L21.8596 22.5235L22.0612 23.3732L22.2588 24.2585L22.4525 25.1873L22.6422 26.1516L22.8279 27.1476L23.0097 28.1752L23.1836 29.2343L23.3536 30.3172L23.5196 31.4278L23.6816 32.5581L23.8397 33.7082L23.9899 34.8781L24.1361 36.0598L24.2744 37.2533L24.2863 37.3679L24.1677 36.9134L23.9464 36.0716L23.7172 35.2417L23.48 34.4196L23.239 33.6055L22.99 32.8032L22.737 32.0127L22.4801 31.2341L22.2153 30.4714L21.9426 29.7205L21.6699 28.9853L21.3854 28.266L21.1008 27.5626L20.8084 26.8788L20.512 26.2109L20.2076 25.5667Z" fill="#DCA52A"/>
<path fill-rule="evenodd" clip-rule="evenodd" d="M2.06888 35.6487C0.851605 32.6411 0.175781 29.3529 0.175781 25.9105C0.175781 11.8921 11.2893 0.47031 25.1694 0L25.1536 0.537497L25.1378 1.11452L25.122 1.70734L25.1062 2.31598L25.0943 2.94042L25.0824 3.57673L25.0745 4.22488L25.0666 4.8849L25.0587 5.55677V6.23655L25.0508 6.92423V7.62376V32.3723L24.9362 31.5582L24.7781 30.4713L24.6161 29.4042L24.4501 28.3569L24.2802 27.3333L24.1063 26.3334L23.9284 25.3572L23.7466 24.4087L23.5609 23.4878L23.3711 22.5986L23.1775 21.741L22.9799 20.9189L22.7783 20.1324L22.5728 19.3815L22.3633 18.6701L22.1499 17.9982L21.9326 17.3698L21.7112 16.7849L21.486 16.2474L21.2567 15.7574L21.0196 15.3147L20.7785 14.9195L20.5295 14.5757L20.2726 14.2832L19.9999 14.0421L19.7075 13.8564L19.3873 13.7338L19.0593 13.6904L18.8894 13.6983L18.7352 13.7259L18.5851 13.7694L18.4428 13.8247L18.3044 13.8959L18.174 13.9789L18.0476 14.0737L17.925 14.1765L17.8065 14.2911L17.6919 14.4176L17.5772 14.5519L17.4666 14.6982L17.3559 14.8523L17.2453 15.0183L17.1386 15.1961L17.0318 15.3819L16.9291 15.5795L16.8263 15.785L16.7236 16.0024L16.6208 16.2277L16.522 16.4608L16.4232 16.7059L16.3244 16.9588L16.2256 17.2197L16.1307 17.4924L16.0359 17.773L15.941 18.0615L15.8462 18.3579L15.7553 18.6622L15.6644 18.9744L15.6012 19.1997L15.4154 19.0693L15.2138 18.9389L15.0123 18.8163L14.8068 18.7057L14.6013 18.6029L14.3918 18.512L14.1823 18.429L13.9689 18.3579L13.7555 18.2947L13.5381 18.2433L13.3207 18.2038L13.0994 18.1761L12.8781 18.1603H12.6449L11.9296 18.2156L11.2221 18.3974L10.5384 18.6859L9.87839 19.0772L9.24209 19.5633L8.62555 20.1403L8.03272 20.8043L7.45966 21.5473L6.9024 22.3694L6.3649 23.2626L5.84717 24.2229L5.34919 25.2505L4.87493 26.3374L4.42043 27.4795L3.98569 28.6731L3.57466 29.9141L3.18734 31.1985L2.82374 32.5225L2.48386 33.8821L2.16768 35.2732L2.09259 35.6487H2.06888Z" fill="#DCA52A"/>
<path fill-rule="evenodd" clip-rule="evenodd" d="M12.3835 47.9241C8.455 45.4698 5.23002 41.9879 3.08398 37.8579L3.11165 37.6998L3.37249 36.3758L3.65705 35.0756L3.96532 33.803L4.29335 32.562L4.6451 31.3566L5.0166 30.1946L5.40787 29.0762L5.81889 28.0091L6.24968 26.9934L6.69628 26.0369L7.15868 25.1437L7.6369 24.3177L8.13092 23.5629L8.6368 22.8831L9.15454 22.2863L9.68413 21.7725L10.2177 21.3496L10.7552 21.0177L11.2966 20.7805L11.8341 20.6382L12.3874 20.5908H12.5455L12.7115 20.6106L12.8775 20.6343L13.0435 20.6659L13.2095 20.7054L13.3755 20.7568L13.5415 20.8161L13.7114 20.8833L13.8774 20.9623L14.0473 21.0493L14.2173 21.1441L14.3872 21.2508L14.5572 21.3654L14.7232 21.488L14.8931 21.6184L14.9603 21.6737L14.822 22.314L14.6639 23.0965L14.5097 23.9028L14.3596 24.7367L14.2133 25.5903L14.0711 26.4677L13.9367 27.3649L13.8063 28.2818L13.6798 29.2145L13.5573 30.163L13.4427 31.1273L13.332 32.1075L13.2292 33.0995L13.1304 34.1033L13.0356 35.1151L12.9486 36.1387L12.8656 37.1702L12.7905 38.2057L12.7194 39.2491L12.6562 40.2964L12.5969 41.3437L12.5455 42.395L12.4981 43.4463L12.4586 44.4976L12.4269 45.5449L12.3993 46.5883L12.3795 47.6277V47.936L12.3835 47.9241Z" fill="#DCA52A"/>
<path fill-rule="evenodd" clip-rule="evenodd" d="M24.9583 51.813C20.7808 51.6391 16.8563 50.4692 13.4219 48.5406L13.4337 47.6118L13.4535 46.5763L13.4812 45.5369L13.5128 44.4935L13.5523 43.4462L13.5997 42.3989L13.6511 41.3555L13.7104 40.3121L13.7776 39.2727L13.8487 38.2372L13.9278 37.2097L14.0107 36.19L14.1017 35.1782L14.1965 34.1783L14.2993 33.1903L14.406 32.218L14.5166 31.2577L14.6352 30.3131L14.7577 29.3883L14.8842 28.4832L15.0186 27.5979L15.1569 26.7364L15.2992 25.8985L15.4454 25.0844L15.5956 24.2979L15.7537 23.5391L15.9157 22.8079L15.9513 22.6577L15.971 22.6775L16.3939 23.1992L16.8128 23.7722L17.2239 24.3927L17.627 25.0606L18.0222 25.772L18.4095 26.5269L18.7929 27.3213L19.1644 28.1513L19.528 29.0168L19.8837 29.9139L20.2315 30.8427L20.5674 31.7991L20.8955 32.7832L21.2156 33.7871L21.5239 34.8146L21.8242 35.862L22.1127 36.9251L22.3933 38.0001L22.6621 39.0869L22.919 40.1856L23.168 41.2923L23.4051 42.4028L23.6304 43.5173L23.8438 44.6319L24.0453 45.7464L24.235 46.8569L24.4168 47.9596L24.5828 49.0544L24.7409 50.1372L24.8872 51.2083L24.9622 51.809L24.9583 51.813Z" fill="#DCA52A"/>
<path fill-rule="evenodd" clip-rule="evenodd" d="M31.354 25.5667L31.6623 24.9423L31.9745 24.3376L32.2947 23.7566L32.6187 23.1994L32.9468 22.6658L33.2788 22.156L33.6186 21.6738L33.9625 21.2154L34.3142 20.7885L34.6699 20.3854L34.9387 20.1127L34.8992 19.9902L34.828 19.7649L34.7529 19.5475L34.6818 19.3341L34.6067 19.1286L34.5316 18.931L34.4565 18.7373L34.3814 18.5516L34.3024 18.3698L34.2273 18.1998L34.1522 18.0338L34.0731 17.8758L33.9941 17.7256L33.919 17.5793L33.84 17.445L33.7609 17.3185L33.6858 17.196L33.6068 17.0814L33.5277 16.9786L33.4526 16.8838L33.3736 16.7968L33.2985 16.7178L33.2234 16.6466L33.1523 16.5834L33.0811 16.532L33.014 16.4885L32.9468 16.453L32.8875 16.4253L32.8282 16.4055L32.7729 16.3897L32.7215 16.3818H32.6899L32.516 16.4055L32.3381 16.4846L32.1366 16.6308L31.9153 16.8561L31.686 17.1525L31.4568 17.5161L31.2276 17.9469L31.0023 18.437L30.777 18.9863L30.5557 19.591L30.3383 20.251L30.121 20.9624L29.9115 21.7212L29.706 22.5235L29.5044 23.3732L29.3029 24.2585L29.1092 25.1873L28.9195 26.1516L28.7377 27.1476L28.5559 28.1752L28.382 29.2343L28.2081 30.3172L28.0421 31.4278L27.884 32.5581L27.7259 33.7082L27.5758 34.8781L27.4295 36.0598L27.2912 37.2533L27.2754 37.3679L27.394 36.9134L27.6192 36.0716L27.8485 35.2417L28.0856 34.4196L28.3267 33.6055L28.5757 32.8032L28.8286 32.0127L29.0855 31.2341L29.3503 30.4714L29.619 29.7205L29.8957 28.9853L30.1763 28.266L30.4648 27.5626L30.7573 26.8788L31.0537 26.2109L31.354 25.5667Z" fill="#DCA52A"/>
<path fill-rule="evenodd" clip-rule="evenodd" d="M49.4989 35.6487C50.7162 32.6411 51.3881 29.3529 51.3881 25.9105C51.392 11.8921 40.2785 0.47031 26.3984 0L26.4142 0.537497L26.4301 1.11452L26.4459 1.70734L26.4617 2.31598L26.4735 2.94042L26.4854 3.57673L26.4933 4.22488L26.5012 4.8849L26.5091 5.55677V6.23655L26.517 6.92423V7.62376V32.3723L26.6316 31.5582L26.7897 30.4713L26.9517 29.4042L27.1177 28.3569L27.2877 27.3333L27.4616 26.3334L27.6394 25.3572L27.8212 24.4087L28.007 23.4878L28.1967 22.5986L28.3903 21.741L28.5879 20.9189L28.7895 20.1324L28.995 19.3815L29.2045 18.6701L29.4179 17.9982L29.6353 17.3698L29.8566 16.7849L30.0819 16.2474L30.3111 15.7574L30.5482 15.3147L30.7893 14.9195L31.0383 14.5757L31.2952 14.2832L31.5679 14.0421L31.8604 13.8564L32.1805 13.7338L32.5085 13.6904L32.6785 13.6983L32.8326 13.7259L32.9828 13.7694L33.125 13.8247L33.2634 13.8959L33.3938 13.9789L33.5203 14.0737L33.6428 14.1765L33.7614 14.2911L33.876 14.4176L33.9906 14.5519L34.1012 14.6982L34.2119 14.8523L34.3226 15.0183L34.4293 15.1961L34.536 15.3819L34.6427 15.5795L34.7454 15.785L34.8482 16.0024L34.951 16.2277L35.0498 16.4608L35.1486 16.7059L35.2474 16.9588L35.3462 17.2197L35.441 17.4924L35.5359 17.773L35.6307 18.0615L35.7256 18.3579L35.8165 18.6622L35.9074 18.9744L35.9706 19.1997L36.1564 19.0693L36.3579 18.9389L36.5595 18.8163L36.765 18.7057L36.9705 18.6029L37.18 18.512L37.3895 18.429L37.6029 18.3579L37.8163 18.2947L38.0337 18.2433L38.255 18.2038L38.4763 18.1761L38.6976 18.1603H38.9308L39.6462 18.2156L40.3536 18.3974L41.0373 18.6859L41.6973 19.0772L42.3336 19.5633L42.9502 20.1403L43.543 20.8043L44.1161 21.5473L44.6733 22.3694L45.2108 23.2626L45.7286 24.2229L46.2265 25.2505L46.7008 26.3374L47.1553 27.4795L47.59 28.6731L48.0011 29.9141L48.3884 31.1985L48.752 32.5225L49.0919 33.8821L49.408 35.2732L49.4831 35.6487H49.4989Z" fill="#DCA52A"/>
<path fill-rule="evenodd" clip-rule="evenodd" d="M39.1822 47.9241C43.1107 45.4698 46.3357 41.9879 48.4817 37.8579L48.4541 37.6998L48.1932 36.3758L47.9087 35.0756L47.6004 33.803L47.2724 32.562L46.9206 31.3566L46.5491 30.1946L46.1579 29.0762L45.7468 28.0091L45.316 26.9934L44.8694 26.0369L44.407 25.1437L43.9288 24.3177L43.4348 23.5629L42.9289 22.8831L42.4112 22.2863L41.8816 21.7725L41.348 21.3496L40.8066 21.0177L40.2651 20.7805L39.7276 20.6382L39.1743 20.5908H39.0163L38.8503 20.6106L38.6843 20.6343L38.5183 20.6659L38.3523 20.7054L38.1863 20.7568L38.0203 20.8161L37.8543 20.8833L37.6883 20.9623L37.5184 21.0493L37.3484 21.1441L37.1785 21.2508L37.0085 21.3654L36.8426 21.488L36.6766 21.6184L36.6094 21.6737L36.7477 22.314L36.9058 23.0965L37.0599 23.9028L37.2101 24.7367L37.3563 25.5903L37.4986 26.4677L37.633 27.3649L37.7634 28.2818L37.8899 29.2145L38.0124 30.163L38.127 31.1273L38.2377 32.1075L38.3404 33.0995L38.4392 34.1033L38.5341 35.1151L38.621 36.1387L38.704 37.1702L38.7791 38.2057L38.8503 39.2491L38.9135 40.2964L38.9728 41.3437L39.0242 42.395L39.0716 43.4463L39.1111 44.4976L39.1427 45.5449L39.1704 46.5883L39.1902 47.6277V47.936L39.1822 47.9241Z" fill="#DCA52A"/>
<path fill-rule="evenodd" clip-rule="evenodd" d="M26.6075 51.813C30.785 51.6391 34.7095 50.4692 38.1439 48.5406L38.1321 47.6118L38.1123 46.5763L38.0847 45.5369L38.0491 44.4935L38.0096 43.4462L37.9621 42.3989L37.9108 41.3555L37.8515 40.3121L37.7843 39.2727L37.7131 38.2372L37.6341 37.2097L37.5511 36.19L37.4602 35.1782L37.3654 34.1783L37.2626 33.1903L37.1559 32.218L37.0452 31.2577L36.9267 30.3131L36.8042 29.3883L36.6777 28.4832L36.5433 27.5979L36.405 26.7364L36.2627 25.8985L36.1165 25.0844L35.9663 24.2979L35.8082 23.5391L35.6462 22.8079L35.6106 22.6577L35.5908 22.6775L35.1679 23.1992L34.749 23.7722L34.338 24.3927L33.9349 25.0606L33.5396 25.772L33.1484 26.5269L32.765 27.3213L32.3935 28.1513L32.0299 29.0168L31.6742 29.9139L31.3264 30.8427L30.9905 31.7991L30.6625 32.7832L30.3423 33.7871L30.0341 34.8146L29.7337 35.862L29.4452 36.9251L29.1646 38.0001L28.8958 39.0869L28.6389 40.1856L28.3939 41.2923L28.1568 42.4028L27.9315 43.5173L27.7181 44.6319L27.5165 45.7464L27.3268 46.8569L27.145 47.9596L26.979 49.0544L26.8209 50.1372L26.6747 51.2083L26.5996 51.809L26.6075 51.813Z" fill="#DCA52A"/>
</svg>
