<svg width="151" height="82" viewBox="0 0 151 82" fill="none" xmlns="http://www.w3.org/2000/svg">
<path d="M79.6423 64.7447C80.5789 64.7447 81.0374 65.302 81.1401 66.3849C81.1401 66.5192 81.1599 66.6536 81.1599 66.8117C81.1599 67.0607 81.1164 67.2939 81.0571 67.448C80.9307 67.527 80.7647 67.5468 80.5789 67.5626C80.1837 67.6021 79.33 67.6219 78.5198 67.6219H77.7294C77.8322 65.7486 78.6265 64.8791 79.4565 64.7645C79.5197 64.7447 79.583 64.7447 79.6462 64.7447M80.1442 71.6176C78.6898 71.6176 77.7096 70.9417 77.6899 68.8194C78.0219 68.8392 78.2946 68.8392 78.6266 68.8392C79.6027 68.8392 80.6856 68.7996 81.3298 68.7246C81.8911 68.6455 82.5787 68.436 82.7842 68.2819C82.8672 67.9736 82.9107 67.5468 82.9107 67.1437C82.9107 66.8157 82.891 66.5074 82.8712 66.2189C82.6815 64.559 81.7251 63.4958 79.8517 63.4958C77.5634 63.4958 75.8561 64.887 75.8561 68.6139C75.8561 70.2145 76.2315 71.4318 76.9587 72.1274C77.7689 72.8823 78.8123 73.0562 79.7885 73.0562C80.4327 73.0562 81.0571 72.9415 81.3694 72.8625C81.9503 72.7242 82.555 72.3171 82.5748 71.9298C82.555 71.6966 82.5116 71.333 82.4483 71.1591C81.7843 71.4871 81.0137 71.6215 80.1402 71.6215L80.1442 71.6176ZM72.8406 69.9181C72.8406 70.3252 72.8406 70.6137 72.8208 70.8469C72.8208 70.9417 72.7813 71.0801 72.7576 71.1156C72.4651 71.4437 71.8644 71.6571 71.2399 71.6571C69.9713 71.6571 69.0346 70.8666 69.0346 68.3926C69.0346 65.7486 70.2835 64.7842 71.5087 64.7842C72.0896 64.7842 72.5283 64.8988 72.8406 65.1518V69.9181ZM74.5874 70.9813C74.5874 69.9576 74.6309 68.4321 74.6309 67.1002V60.6147C74.6309 59.7452 74.5874 59.4172 74.4649 59.1484C73.6112 59.1484 73.0065 59.2275 72.801 59.6701C72.8208 60.1325 72.8445 60.6937 72.8445 61.5434V63.8397C72.5125 63.646 71.9474 63.4919 71.2202 63.4919C70.2203 63.4919 69.2243 63.8594 68.4536 64.6499C67.6197 65.5193 67.0783 66.8315 67.0783 68.5862C67.0783 71.8665 68.5959 72.9534 70.6787 73.0482C71.2399 73.068 71.7379 72.989 72.1964 72.7755C72.4256 72.6807 72.6746 72.4673 72.801 72.3487C73.0105 72.6016 73.5519 73.0482 74.0499 73.0285C74.5914 73.0087 74.9866 72.8151 75.1526 72.5819C75.1526 72.487 75.1526 72.1392 75.1723 71.8665C74.5084 72.0009 74.5914 70.9813 74.5914 70.9813H74.5874ZM103.853 65.6893C100.996 67.3176 98.3203 67.9065 95.6486 66.124C92.9651 64.3376 90.5701 63.1796 88.0209 64.6657C85.5034 66.4323 86.1436 71.001 91.5107 70.6848C91.6688 70.5821 91.8229 69.6296 91.3921 69.5901C89.7796 69.4399 87.0803 68.4874 88.6493 66.8433C91.155 64.2112 94.2061 68.3017 97.5733 68.9696C99.6759 69.3885 101.561 68.7008 103.596 67.61L104.276 65.4363L103.853 65.6893ZM128.871 65.6458C128.871 64.7961 128.645 64.1361 128.195 63.5235C128.618 63.5709 128.922 63.5946 129.345 63.5946C129.795 63.5946 130.021 63.1955 130.021 62.654C130.021 62.3457 129.946 62.0888 129.871 61.9466C129.218 61.9703 128.242 62.0414 127.29 62.0651C127.088 62.2074 127.013 62.1126 126.914 62.0651C126.487 61.8517 125.76 61.6185 124.911 61.6185C122.456 61.6185 120.654 63.1046 120.654 65.7446C120.654 67.2306 121.255 68.3847 122.306 68.9973C121.879 69.3767 121.279 69.8944 120.804 70.341C120.63 70.5307 120.528 70.6927 120.528 70.835C120.551 71.5188 121.152 72.1076 122.255 72.4396C122.255 72.4396 123.057 72.6767 124.156 72.7716L124.606 72.7953C125.207 72.819 125.784 72.8506 126.333 72.9139C127.855 73.0878 128.74 73.7517 129.116 74.6252C126.397 73.6687 119.844 73.1787 118.65 77.7039C117.919 80.4744 121.879 82.0079 123.776 81.9604C127.709 81.8695 130.61 79.4785 131.21 76.2851C138.992 79.929 144.336 78.5339 148.485 76.8265C150.454 76.0203 149.248 74.0086 147.833 74.8623C143.367 77.1506 138.115 77.3245 131.309 75.0876C131.246 72.5384 128.914 71.5425 127.408 71.3053C127.155 71.2658 126.855 71.2342 126.531 71.2105C125.78 71.1631 125.029 71.0919 124.326 71.0445C123.326 70.9496 122.796 70.6927 122.796 70.4082C122.796 70.2896 122.848 70.1473 122.97 70.009C123.144 69.8193 123.346 69.6533 123.571 69.4439C123.946 69.515 124.274 69.5624 124.749 69.5624C127.302 69.5624 128.855 68.1238 128.855 65.6498L128.871 65.6458ZM129.333 75.8503C129.195 78.8263 126.349 80.4665 123.654 80.4784C118.476 80.506 118.421 73.4474 129.333 75.8503ZM124.614 62.982C125.914 62.982 126.642 63.8792 126.792 65.4126C126.942 67.0607 126.416 68.1713 125.065 68.1713C123.713 68.1713 122.986 67.1793 122.836 65.626C122.662 63.8594 123.464 62.986 124.614 62.986V62.982ZM147.501 70.4477C147.478 70.586 147.45 70.7244 147.426 70.7718C147.074 71.167 146.252 71.4911 145.498 71.4911H145.324C144.549 71.4437 143.996 71.0287 143.996 69.843C143.996 68.3807 145.023 67.8946 146.221 67.7088C146.47 67.6851 146.746 67.6614 147.047 67.6614C147.221 67.6614 147.395 67.6614 147.549 67.6851V69.3332C147.549 69.8193 147.549 70.1671 147.497 70.4477H147.501ZM142.624 63.2745C142.676 63.5512 142.774 63.9701 143 64.2033C143.201 64.2033 143.45 64.1321 143.723 64.0175C144.45 63.7409 145.474 63.4128 146.351 63.4128C147.426 63.4128 147.553 63.9938 147.553 65.0372V66.3612C147.327 66.3137 147.051 66.29 146.727 66.29C146.501 66.29 146.276 66.29 146.023 66.3137C144.525 66.452 141.794 67.1714 141.794 70.0288C141.794 72.163 143.32 73.0957 144.92 73.0957C145.596 73.0957 146.197 73.0482 146.746 72.7914C147.023 72.653 147.323 72.3961 147.474 72.2578C147.723 72.5819 148.375 73.0957 148.975 73.0957C149.628 73.072 150.102 72.8151 150.299 72.5582C150.299 72.4198 150.299 72.0246 150.323 71.7006C149.521 71.8389 149.624 70.6335 149.624 70.6335C149.624 69.4043 149.675 67.5468 149.675 65.9462V64.9028C149.675 62.9307 149.074 61.7924 147.225 61.6778C146.802 61.6541 146.75 61.6541 146.351 61.6541C144.675 61.7015 143.174 62.3023 142.648 62.7686C142.624 62.8398 142.601 62.9307 142.601 63.0216C142.601 63.1125 142.601 63.2073 142.624 63.2784V63.2745ZM140.877 55.9155C140.53 55.9155 138.976 57.8442 138.174 58.9113C138.15 58.9824 138.15 59.0496 138.15 59.097C138.15 59.4685 138.577 59.8875 138.925 59.9547C139.625 59.3302 140.976 58.1208 141.877 57.2869C142.027 57.1486 142.103 57.0775 142.154 57.0063C142.154 56.5676 141.431 55.9155 140.877 55.9155ZM140.427 61.8794C139.399 61.8794 138.625 61.9505 138.376 62.4366C138.399 63.0413 138.427 63.7606 138.427 64.8277V68.938C138.427 70.3529 138.403 71.7243 138.403 72.9099C139.806 72.8862 140.154 72.8862 140.328 72.6491C140.553 72.325 140.628 71.9535 140.628 71.4199V63.5274C140.628 62.5512 140.605 62.2035 140.427 61.8794ZM135.783 63.5986C135.91 63.5986 136.06 63.5986 136.234 63.646C136.431 63.6697 136.66 63.6934 136.834 63.6934C136.919 63.6934 136.994 63.6855 137.06 63.6697C137.36 63.2508 137.459 62.6461 137.459 62.322C137.384 61.9979 137.032 61.8122 136.384 61.741C135.933 61.6699 135.506 61.7885 135.032 61.9268C134.506 62.0888 133.906 62.3694 133.329 62.8318C133.202 62.4366 133.005 62.1363 132.554 62.1363C132.503 62.1363 132.455 62.1363 132.38 62.16C131.807 62.3932 131.507 62.5552 131.357 62.6935C131.53 63.1559 131.681 63.6895 131.681 64.4325L131.657 68.357C131.657 70.1671 131.633 71.6531 131.606 72.9099C132.957 72.9099 133.258 72.8862 133.582 72.6728C133.783 72.4159 133.807 72.1392 133.807 71.744V64.3376C134.309 63.8515 134.957 63.5946 135.783 63.5946V63.5986ZM115.386 63.1559C116.512 63.1559 117.062 63.8278 117.188 65.1281C117.188 65.2901 117.212 65.4521 117.212 65.6379C117.212 65.9383 117.16 66.2189 117.085 66.4046C116.935 66.4955 116.734 66.5192 116.512 66.5429C116.038 66.5904 115.01 66.6141 114.034 66.6141H113.086C113.208 64.3653 114.161 63.318 115.161 63.1796C115.236 63.1559 115.311 63.1559 115.386 63.1559ZM115.987 71.4199C114.236 71.4199 113.058 70.6097 113.034 68.0566C113.433 68.0803 113.758 68.0803 114.161 68.0803C115.334 68.0803 116.639 68.0329 117.413 67.942C118.089 67.8511 118.915 67.5942 119.164 67.4085C119.263 67.037 119.314 66.5271 119.314 66.0371C119.314 65.6419 119.291 65.2704 119.263 64.9226C119.038 62.9267 117.888 61.6502 115.635 61.6502C112.884 61.6502 110.833 63.3219 110.833 67.7997C110.833 69.7245 111.283 71.1868 112.161 72.0246C113.137 72.9336 114.386 73.1431 115.564 73.1431C116.338 73.1431 117.089 73.0048 117.465 72.9099C118.164 72.7439 118.891 72.2539 118.915 71.7914C118.891 71.5148 118.84 71.0722 118.765 70.8627C117.963 71.2579 117.038 71.4199 115.991 71.4199H115.987ZM108.825 70.6453V58.3698C108.825 57.1881 108.798 56.6467 108.651 56.1724C108.296 56.1724 107.972 56.1803 107.695 56.2119C106.976 56.2752 106.624 56.6111 106.64 57.2197C106.659 57.8244 106.675 58.524 106.675 59.4527V71.6571C106.675 72.1274 106.877 72.5779 107.276 72.8388C107.553 73.0087 107.877 73.151 108.177 73.151C108.829 73.1273 109.303 72.8902 109.501 72.6056C109.501 72.487 109.501 72.0602 109.529 71.7322C108.754 71.8744 108.829 70.6453 108.829 70.6453H108.825ZM102.711 72.5068C103.11 72.8585 103.387 72.9297 103.687 72.9297C104.11 72.9297 104.786 72.8585 105.086 72.7518C105.138 72.7044 105.185 72.653 105.185 72.5779C105.185 72.5779 105.162 72.5305 105.162 72.5068C104.739 71.2421 104.26 69.7245 103.561 67.7642C102.652 65.0411 101.352 61.1719 100.292 57.9904L97.6287 57.7493C96.3877 61.496 93.9334 68.025 92.6291 71.8863C92.5303 72.159 92.4552 72.4317 92.4276 72.7558C92.8781 72.8625 93.5777 72.9336 93.9294 72.9336C94.4788 72.9336 94.6289 72.8072 94.704 72.5819C96.0359 68.6139 96.4193 67.5073 97.2809 64.7882C97.9804 62.7014 98.4072 61.2154 98.8301 59.6503C99.0554 60.5198 99.3558 61.662 99.8814 63.2982C101.391 67.9144 100.573 66.041 102.707 72.5068H102.711ZM15.9054 63.5472C12.1904 66.1991 9.87042 64.6617 7.05251 63.6855C5.48745 63.1401 2.60631 62.6698 1.05705 63.8159C-0.310406 64.8238 -0.488254 67.6259 1.34161 68.2819C2.76044 68.602 3.47974 67.2978 2.78415 67.0884C1.80796 67.2781 1.36137 66.7801 1.36532 66.1912C1.36532 64.0373 4.99342 64.559 6.19489 64.9977C7.86271 65.6063 8.85075 66.543 10.566 66.7248C12.1824 66.8986 13.6408 66.4204 15.0992 65.6932C15.7592 65.3612 15.9094 64.9028 15.9094 64.3653V63.5472H15.9054ZM39.662 71.744V64.5036C40.1876 63.9701 40.9109 63.5274 41.812 63.5274C43.3138 63.5274 43.7881 64.1756 43.7881 65.9659V72.1155C43.7881 72.487 43.8394 72.8111 43.9896 73.072C45.4164 73.072 45.7918 73.0048 46.0408 72.7914C46.0171 71.8626 45.9894 70.7481 45.9894 69.4715V65.9185C45.9894 63.2943 45.4124 61.8319 42.4364 61.8319C41.8871 61.8319 41.4128 61.9268 40.8871 62.0849C40.3378 62.2469 39.7608 62.5275 39.16 62.9899C39.0612 62.5947 38.836 62.2944 38.3854 62.2944C38.3617 62.2944 38.2827 62.2944 38.2115 62.3181C37.6622 62.5512 37.3341 62.7133 37.2116 62.8516C37.3855 63.314 37.512 63.8515 37.512 64.5906V68.5349C37.512 70.3212 37.4883 71.8073 37.4606 73.0641C38.4131 73.0482 38.832 73.0522 39.0968 72.9771C39.6896 73.0285 39.745 72.487 39.662 71.7401V71.744ZM34.0578 73.072C34.7613 72.9218 35.4845 72.4198 35.5082 71.9535C35.4845 71.6729 35.4331 71.2342 35.358 71.0247C34.5558 71.4199 33.6309 71.582 32.5797 71.582C30.8288 71.582 29.655 70.7678 29.6274 68.2147C30.0266 68.2384 30.3546 68.2384 30.7538 68.2384C31.9276 68.2384 33.2318 68.191 34.0064 68.1001C34.6822 68.0053 35.5082 67.7523 35.7572 67.5666C35.856 67.1951 35.9074 66.6852 35.9074 66.1991C35.9074 65.8039 35.8837 65.4324 35.856 65.0846C35.6307 63.0887 34.4807 61.8122 32.2279 61.8122C29.4772 61.8122 27.426 63.484 27.426 67.9618C27.426 69.8865 27.9556 71.2737 28.75 72.1867C29.6709 73.2419 32.4571 73.4158 34.0538 73.072H34.0578ZM59.1107 63.318C60.237 63.318 60.7864 63.9938 60.9089 65.2941C60.9089 65.4561 60.9326 65.6181 60.9326 65.8039C60.9326 66.1043 60.8813 66.3849 60.8062 66.5706C60.656 66.6615 60.4544 66.6852 60.2291 66.7089C59.7509 66.7564 58.7273 66.7761 57.7511 66.7761H56.7986C56.9251 64.5273 57.8736 63.48 58.8775 63.3417C58.9526 63.318 59.0277 63.318 59.1028 63.318H59.1107ZM59.7114 71.582C57.9606 71.582 56.7828 70.7678 56.7591 68.2147C57.1583 68.2384 57.4863 68.2384 57.8855 68.2384C59.0593 68.2384 60.3635 68.191 61.1381 68.1001C61.814 68.0053 62.64 67.7523 62.889 67.5666C62.9878 67.1951 63.0391 66.6852 63.0391 66.1991C63.0391 65.8039 63.0154 65.4324 62.9878 65.0846C62.7625 63.0887 61.6124 61.8122 59.3597 61.8122C56.6089 61.8122 54.5578 63.484 54.5578 67.9618C54.5578 69.8865 55.0083 71.3488 55.8817 72.1867C56.8579 73.0957 58.1068 73.3051 59.2846 73.3051C60.0592 73.3051 60.8101 73.1668 61.1856 73.072C61.8891 72.906 62.6123 72.4198 62.636 71.9535C62.6123 71.6729 62.5609 71.2342 62.4858 71.0247C61.6835 71.4199 60.7587 71.582 59.7075 71.582H59.7114ZM53.7713 71.2579C53.5697 71.4199 52.4196 71.744 52.0442 71.7243C51.0443 71.7243 50.819 70.8192 50.7162 69.5189C50.7162 68.7522 50.6925 67.8472 50.6925 66.8275C50.6925 65.8078 50.7162 64.7408 50.7439 63.6697C51.8189 63.6697 52.143 63.6697 52.7951 63.646C52.9966 63.646 53.1943 63.6223 53.3958 63.5986C53.7476 63.5274 53.8977 63.2745 53.9728 62.1126H50.7478C50.7478 61.1601 50.7716 60.1878 50.7953 59.1207C49.6215 59.1919 49.0958 59.5832 48.918 60.0495L48.7955 62.1402C48.42 62.3023 47.6414 62.3694 47.2936 62.6501C47.0921 62.8358 47.0684 62.741 47.0684 63.4642C47.3687 63.6025 47.7679 63.6974 48.5702 63.6974V69.432C48.5702 71.3132 48.997 73.3368 51.3209 73.3368C52.0955 73.3368 52.9453 73.1747 53.4235 72.8941C53.625 72.7558 53.7476 72.6175 53.7989 72.4317C53.8266 72.2222 53.8266 71.9891 53.8266 71.7836C53.8266 71.5978 53.7989 71.412 53.7752 71.2737L53.7713 71.2579ZM31.9829 63.318C33.1093 63.318 33.6586 63.9938 33.7851 65.2941C33.7851 65.4561 33.8088 65.6181 33.8088 65.8039C33.8088 66.1043 33.7614 66.3849 33.6863 66.5706C33.5361 66.6615 33.3345 66.6852 33.1132 66.7089C32.635 66.7564 31.6114 66.7761 30.6352 66.7761H29.6827C29.8052 64.5273 30.7577 63.48 31.7576 63.3417C31.8327 63.318 31.9078 63.318 31.9829 63.318ZM19.6323 62.5552C19.5335 62.1837 19.2806 61.7648 18.7312 61.7648C18.7075 61.7648 18.6324 61.7648 18.5297 61.7885C17.8775 62.0651 17.5021 62.2746 17.3559 62.4366C17.5574 62.9939 17.7036 63.6183 17.7036 64.4799L17.4547 69.3292C17.5021 71.7915 18.0791 73.1629 20.98 73.2775C21.5294 73.2775 22.0076 73.1866 22.5332 73.0245C23.0826 72.8585 23.6596 72.5779 24.2603 72.1155C24.3591 72.5107 24.5844 72.8111 25.0349 72.8111C25.0587 72.8111 25.1338 72.8111 25.2088 72.7874C25.7582 72.5542 26.0823 72.3922 26.2087 72.2539C26.0348 71.7915 25.9084 71.254 25.9084 70.5109V66.5667C25.9084 64.7803 25.936 63.2943 25.9598 62.0414C24.6081 62.0651 24.3315 62.0414 24.0311 62.2746C23.8058 62.575 23.7544 62.8793 23.7544 63.3654V70.7441C23.3276 71.2302 22.4305 71.6017 21.5531 71.5583C20.3516 71.5583 19.6521 71.1156 19.6521 69.0289L19.9011 64.7803C19.9011 63.5946 19.7746 63.0848 19.6244 62.5512L19.6323 62.5552ZM10.3486 73.072C10.9415 73.072 11.4552 72.8427 11.641 72.7676C11.4987 60.4329 11.5896 68.8313 11.5896 58.1564H15.0399C15.8501 58.1564 16.3322 58.1564 16.7116 58.0576C17.0871 57.9311 17.2254 57.6584 17.3321 56.4333H10.6174C9.94551 56.457 9.40406 56.7336 9.16298 56.8087C9.19064 57.6071 9.21436 58.4607 9.21436 59.5594V72.8664C9.51077 73.0206 9.89018 73.072 10.3486 73.072Z" fill="#DCA52A"/>
<path d="M38.5506 76.6133V77.8029H37.8313C37.7167 77.5658 37.6179 77.4037 37.5388 77.3207C37.4598 77.2377 37.361 77.1705 37.2503 77.1231C37.1397 77.0757 36.95 77.052 36.6812 77.052H35.539V78.8502H36.2307C36.3848 78.8502 36.5034 78.8344 36.5903 78.8028C36.6773 78.7712 36.7484 78.7198 36.8077 78.6487C36.867 78.5775 36.9183 78.4629 36.9737 78.3127H37.5665V79.8343H36.9737C36.9223 79.6881 36.8709 79.5774 36.8116 79.5023C36.7523 79.4272 36.6812 79.3719 36.5982 79.3403C36.5152 79.3087 36.3927 79.2929 36.2307 79.2929H35.539V81.2927H36.6733C36.7958 81.2927 36.8986 81.2887 36.9816 81.2769C37.0646 81.265 37.1397 81.2452 37.2068 81.2176C37.274 81.1899 37.3373 81.1543 37.3966 81.1069C37.4598 81.0595 37.5112 81.0081 37.5586 80.9528C37.606 80.8974 37.6534 80.8263 37.7088 80.7354C37.7602 80.6445 37.8194 80.522 37.8787 80.3639H38.598L38.4992 81.7314H33.3574V81.4863C33.4878 81.4626 33.5906 81.4349 33.6657 81.4073C33.7408 81.3796 33.7961 81.3401 33.8317 81.2887C33.8673 81.2373 33.891 81.1741 33.9028 81.0951C33.9147 81.016 33.9186 80.9172 33.9186 80.7986V77.5697C33.9186 77.4511 33.9147 77.3523 33.9028 77.2733C33.8949 77.1943 33.8712 77.1271 33.8356 77.0796C33.8001 77.0283 33.7447 76.9887 33.6696 76.9571C33.5946 76.9255 33.4918 76.8978 33.3574 76.8741V76.6291H38.5506V76.6133Z" fill="#DCA52A"/>
<path d="M45.2232 80.4664C45.3102 80.7628 45.4564 80.9841 45.6619 81.1303C45.8674 81.2766 46.1638 81.3477 46.559 81.3477C46.7646 81.3477 46.9503 81.324 47.1123 81.2726C47.2783 81.2212 47.4088 81.1422 47.5076 81.0315C47.6064 80.9209 47.6577 80.7825 47.6577 80.6126C47.6577 80.4585 47.6182 80.3241 47.5352 80.2095C47.4562 80.0949 47.3258 79.9882 47.1479 79.8854C46.9701 79.7826 46.7211 79.6759 46.4049 79.5613C46.1322 79.4625 45.8872 79.3637 45.6658 79.257C45.4445 79.1503 45.2588 79.0357 45.1046 78.9092C44.9505 78.7827 44.828 78.6444 44.741 78.4982C44.658 78.348 44.6146 78.1781 44.6146 77.9923C44.6146 77.684 44.7213 77.4232 44.9307 77.2098C45.1442 76.9964 45.4524 76.8304 45.8556 76.7197C46.2587 76.609 46.725 76.5537 47.2546 76.5537C47.5668 76.5537 47.8633 76.5656 48.1439 76.5893C48.4245 76.613 48.7486 76.6525 49.1122 76.7158V77.8026H48.3968C48.3296 77.605 48.2466 77.4469 48.1439 77.3323C48.0411 77.2177 47.9107 77.1307 47.7566 77.0754C47.6024 77.0201 47.4088 76.9924 47.1756 76.9924C46.978 76.9924 46.8001 77.0161 46.642 77.0675C46.484 77.1189 46.3614 77.194 46.2705 77.2928C46.1796 77.3916 46.1362 77.5101 46.1362 77.6524C46.1362 77.7947 46.1757 77.9212 46.2547 78.0279C46.3338 78.1346 46.4642 78.2373 46.6499 78.3401C46.8357 78.4429 47.1044 78.5575 47.4562 78.6879C47.887 78.846 48.2229 79.0041 48.4679 79.1582C48.713 79.3123 48.8948 79.4783 49.0133 79.6601C49.128 79.8419 49.1872 80.0514 49.1872 80.2925C49.1872 80.6007 49.0884 80.8655 48.8908 81.0948C48.6932 81.32 48.4047 81.4939 48.0214 81.6165C47.6419 81.739 47.2032 81.7983 46.7013 81.7983C46.3456 81.7983 45.9741 81.7825 45.5908 81.7548C45.2034 81.7271 44.8438 81.6836 44.5039 81.6283V80.4743H45.2193L45.2232 80.4664Z" fill="#DCA52A"/>
<path d="M56.4351 81.7274V81.4824C56.5813 81.4626 56.6959 81.4428 56.7829 81.4112C56.8698 81.3836 56.9331 81.344 56.9726 81.2887C57.016 81.2373 57.0398 81.1701 57.0516 81.0872C57.0635 81.0081 57.0674 80.9054 57.0674 80.7868V77.052H56.6445C56.4351 77.052 56.273 77.0678 56.1624 77.1033C56.0517 77.1389 55.9529 77.1942 55.8699 77.2693C55.7909 77.3444 55.7197 77.4432 55.6605 77.5697C55.6012 77.6962 55.5498 77.8147 55.5142 77.9294H54.7949V76.6133H60.9524V77.9294H60.2331C60.1659 77.7594 60.1146 77.6369 60.075 77.5539C60.0395 77.4749 59.996 77.4077 59.9486 77.3523C59.9011 77.297 59.8498 77.2496 59.7984 77.2101C59.747 77.1745 59.6917 77.1429 59.6284 77.1192C59.5692 77.0954 59.498 77.0796 59.4071 77.0678C59.3162 77.0559 59.2016 77.052 59.0593 77.052H58.6839V80.7868C58.6839 80.9172 58.6878 81.02 58.6997 81.0872C58.7115 81.1543 58.7273 81.2136 58.755 81.2531C58.7827 81.2966 58.8182 81.3282 58.8578 81.3559C58.8973 81.3836 58.9526 81.4073 59.0238 81.427C59.0949 81.4468 59.1898 81.4666 59.3162 81.4784V81.7235H56.4272L56.4351 81.7274Z" fill="#DCA52A"/>
<path d="M67.3188 79.7037H69.2001L68.3662 77.5972L67.3188 79.7037ZM69.3542 80.1424H67.1212L66.9513 80.4981C66.8999 80.5969 66.8604 80.6957 66.8288 80.7866C66.7971 80.8815 66.7813 80.9803 66.7813 81.083C66.7813 81.3281 66.9631 81.4585 67.3267 81.4783V81.7233H65.0938V81.4783C65.2202 81.4664 65.3348 81.4348 65.4336 81.3794C65.5324 81.3241 65.6194 81.249 65.6984 81.1542C65.7775 81.0593 65.8644 80.921 65.9553 80.7471L68.1369 76.5854H69.5321L71.2592 80.7827C71.3342 80.9684 71.4014 81.1028 71.4528 81.1818C71.5042 81.2609 71.5714 81.3241 71.6544 81.3715C71.7374 81.419 71.8559 81.4545 72.0061 81.4783V81.7233H69.1171V81.4783C69.2989 81.4624 69.4332 81.4269 69.5202 81.3715C69.6071 81.3123 69.6506 81.2332 69.6506 81.1265C69.6506 81.0514 69.6388 80.9645 69.615 80.8696C69.5913 80.7748 69.5518 80.6562 69.4925 80.51L69.3503 80.1424H69.3542Z" fill="#DCA52A"/>
<path d="M83.9782 76.6133V76.8583C83.8399 76.8899 83.7411 76.9176 83.6818 76.9413C83.6225 76.9611 83.5751 76.9927 83.5356 77.0322C83.496 77.0678 83.4644 77.1271 83.4447 77.2022C83.4249 77.2772 83.413 77.3958 83.413 77.5539V81.7274H82.0851L79.7296 78.8146C79.4134 78.4194 79.1803 78.1112 79.0301 77.8859H78.9826C79.0182 78.4234 79.038 78.9885 79.038 79.5853V80.7907C79.038 80.9765 79.0498 81.1109 79.0735 81.182C79.1012 81.2571 79.1486 81.3164 79.2158 81.3599C79.283 81.4033 79.4095 81.4428 79.5992 81.4784V81.7235H77.6191V81.4784C77.7496 81.4547 77.8523 81.427 77.9274 81.3954C78.0025 81.3678 78.0578 81.3243 78.0974 81.2729C78.1329 81.2215 78.1566 81.1583 78.1685 81.0792C78.1804 81.0042 78.1843 80.9054 78.1843 80.7868V77.546C78.1843 77.3602 78.1724 77.2298 78.1487 77.1587C78.125 77.0875 78.0776 77.0283 78.0065 76.9808C77.9353 76.9334 77.8049 76.8939 77.6191 76.8583V76.6133H79.7375L81.5911 78.9174C81.7057 79.0636 81.8559 79.2573 82.0416 79.5063C82.2274 79.7513 82.3894 79.9884 82.5317 80.2058H82.6147C82.5791 79.609 82.5594 78.9569 82.5594 78.2495V77.5539C82.5594 77.3919 82.5515 77.2733 82.5317 77.2022C82.5159 77.131 82.4882 77.0757 82.4527 77.0362C82.4171 77.0006 82.3657 76.969 82.3064 76.9413C82.2471 76.9176 82.1444 76.8899 82.0021 76.8583V76.6133H83.9782Z" fill="#DCA52A"/>
<path d="M95.1303 76.7316V77.8184H94.419C94.336 77.5378 94.2016 77.3283 94.0198 77.194C93.838 77.0596 93.6008 76.9924 93.3084 76.9924C92.7551 76.9924 92.3401 77.1821 92.0595 77.5615C91.7749 77.9409 91.6327 78.5021 91.6327 79.2451C91.6327 79.9368 91.7631 80.4585 92.02 80.8181C92.2808 81.1738 92.6563 81.3517 93.1543 81.3517C93.4111 81.3517 93.6167 81.32 93.7787 81.2608C93.9368 81.1975 94.0672 81.1066 94.1621 80.9841C94.2569 80.8616 94.3399 80.6917 94.4111 80.4664H95.1264V81.6007C94.743 81.6678 94.3913 81.7113 94.0751 81.7429C93.7589 81.7706 93.427 81.7864 93.0871 81.7864C92.3638 81.7864 91.771 81.6915 91.3086 81.5058C90.8501 81.32 90.5102 81.0355 90.2929 80.66C90.0755 80.2806 89.9648 79.8024 89.9648 79.2214C89.9648 78.68 90.0953 78.2097 90.3482 77.8066C90.6051 77.4074 90.9806 77.0952 91.4785 76.8778C91.9765 76.6604 92.5733 76.5537 93.2689 76.5537C93.6206 76.5537 93.9407 76.5695 94.2253 76.5932C94.5138 76.6209 94.8102 76.6644 95.1185 76.7276" fill="#DCA52A"/>
<path d="M103.277 80.7867C103.277 80.8737 103.277 80.9527 103.289 81.0278C103.297 81.1029 103.309 81.1662 103.329 81.2136C103.348 81.261 103.38 81.3005 103.42 81.3321C103.459 81.3638 103.514 81.3954 103.586 81.4151C103.657 81.4389 103.74 81.4586 103.842 81.4784V81.7234H101.096V81.4784C101.226 81.4547 101.329 81.427 101.404 81.3993C101.479 81.3717 101.534 81.3321 101.57 81.2808C101.606 81.2294 101.629 81.1662 101.641 81.0871C101.653 81.0081 101.657 80.9093 101.657 80.7907V77.5578C101.657 77.4392 101.653 77.3404 101.641 77.2614C101.633 77.1824 101.609 77.1191 101.574 77.0677C101.538 77.0164 101.483 76.9768 101.408 76.9452C101.333 76.9136 101.23 76.8859 101.096 76.8622V76.6172H103.842V76.8622C103.7 76.8899 103.593 76.9215 103.526 76.9492C103.459 76.9808 103.408 77.0164 103.372 77.0638C103.337 77.1073 103.313 77.1665 103.301 77.2377C103.285 77.3088 103.281 77.4155 103.281 77.5578V80.7867H103.277Z" fill="#DCA52A"/>
<path d="M111.547 79.7037H113.429L112.595 77.5972L111.547 79.7037ZM113.583 80.1424H111.35L111.18 80.4981C111.128 80.5969 111.089 80.6957 111.057 80.7866C111.026 80.8815 111.01 80.9803 111.01 81.083C111.01 81.3281 111.192 81.4585 111.555 81.4783V81.7233H109.322V81.4783C109.449 81.4664 109.563 81.4348 109.662 81.3794C109.761 81.3241 109.848 81.249 109.927 81.1542C110.006 81.0593 110.093 80.921 110.184 80.7471L112.365 76.5854H113.761L115.488 80.7827C115.563 80.9684 115.63 81.1028 115.681 81.1818C115.733 81.2609 115.8 81.3241 115.883 81.3715C115.966 81.419 116.084 81.4545 116.235 81.4783V81.7233H113.346V81.4783C113.527 81.4624 113.662 81.4269 113.749 81.3715C113.836 81.3123 113.879 81.2332 113.879 81.1265C113.879 81.0514 113.867 80.9645 113.844 80.8696C113.82 80.7748 113.78 80.6562 113.721 80.51L113.579 80.1424H113.583Z" fill="#DCA52A"/>
<path fill-rule="evenodd" clip-rule="evenodd" d="M68.2076 25.5667L67.9033 24.9423L67.5871 24.3376L67.271 23.7566L66.9469 23.1994L66.6189 22.6658L66.2829 22.156L65.947 21.6738L65.5992 21.2154L65.2514 20.7885L64.8957 20.3854L64.627 20.1127L64.6625 19.9902L64.7376 19.7649L64.8088 19.5475L64.8838 19.3341L64.9589 19.1286L65.034 18.931L65.1091 18.7373L65.1842 18.5516L65.2593 18.3698L65.3383 18.1998L65.4134 18.0338L65.4925 17.8758L65.5676 17.7256L65.6466 17.5793L65.7257 17.445L65.8008 17.3185L65.8798 17.196L65.9588 17.0814L66.0339 16.9786L66.113 16.8838L66.1881 16.7968L66.2671 16.7178L66.3382 16.6466L66.4133 16.5834L66.4845 16.532L66.5517 16.4885L66.6189 16.453L66.6781 16.4253L66.7374 16.4055L66.7927 16.3897L66.8441 16.3818H66.8757L67.0457 16.4055L67.2235 16.4846L67.429 16.6308L67.6504 16.8561L67.8756 17.1525L68.1049 17.5161L68.3341 17.9469L68.5633 18.437L68.7886 18.9863L69.0099 19.591L69.2273 20.251L69.4407 20.9624L69.6541 21.7212L69.8596 22.5235L70.0612 23.3732L70.2588 24.2585L70.4525 25.1873L70.6422 26.1516L70.8279 27.1476L71.0097 28.1752L71.1836 29.2343L71.3536 30.3172L71.5196 31.4278L71.6816 32.5581L71.8397 33.7082L71.9899 34.8781L72.1361 36.0598L72.2744 37.2533L72.2863 37.3679L72.1677 36.9134L71.9464 36.0716L71.7172 35.2417L71.48 34.4196L71.239 33.6054L70.99 32.8032L70.737 32.0127L70.4801 31.2341L70.2153 30.4714L69.9426 29.7205L69.6699 28.9853L69.3854 28.2661L69.1008 27.5626L68.8084 26.8788L68.512 26.2109L68.2076 25.5667Z" fill="#DCA52A"/>
<path fill-rule="evenodd" clip-rule="evenodd" d="M50.0689 35.6487C48.8516 32.6411 48.1758 29.3529 48.1758 25.9105C48.1758 11.8921 59.2893 0.47031 73.1694 0L73.1536 0.537497L73.1378 1.11452L73.122 1.70734L73.1062 2.31598L73.0943 2.94042L73.0824 3.57673L73.0745 4.22488L73.0666 4.8849L73.0587 5.55677V6.23655L73.0508 6.92423V7.62376V32.3723L72.9362 31.5582L72.7781 30.4713L72.6161 29.4042L72.4501 28.3569L72.2802 27.3333L72.1063 26.3334L71.9284 25.3572L71.7466 24.4087L71.5609 23.4878L71.3711 22.5986L71.1775 21.741L70.9799 20.9189L70.7783 20.1324L70.5728 19.3815L70.3633 18.6701L70.1499 17.9982L69.9326 17.3698L69.7112 16.7849L69.486 16.2474L69.2567 15.7574L69.0196 15.3147L68.7785 14.9195L68.5295 14.5757L68.2726 14.2832L67.9999 14.0421L67.7075 13.8564L67.3873 13.7338L67.0593 13.6904L66.8894 13.6983L66.7352 13.7259L66.5851 13.7694L66.4428 13.8247L66.3044 13.8959L66.174 13.9789L66.0476 14.0737L65.925 14.1765L65.8065 14.2911L65.6919 14.4176L65.5772 14.5519L65.4666 14.6982L65.3559 14.8523L65.2453 15.0183L65.1386 15.1961L65.0318 15.3819L64.9291 15.5795L64.8263 15.785L64.7236 16.0024L64.6208 16.2277L64.522 16.4608L64.4232 16.7059L64.3244 16.9588L64.2256 17.2197L64.1307 17.4924L64.0359 17.773L63.941 18.0615L63.8462 18.3579L63.7553 18.6622L63.6644 18.9744L63.6012 19.1997L63.4154 19.0693L63.2138 18.9389L63.0123 18.8163L62.8068 18.7057L62.6013 18.6029L62.3918 18.512L62.1823 18.429L61.9689 18.3579L61.7555 18.2947L61.5381 18.2433L61.3207 18.2038L61.0994 18.1761L60.8781 18.1603H60.6449L59.9296 18.2156L59.2221 18.3974L58.5384 18.6859L57.8784 19.0772L57.2421 19.5633L56.6256 20.1403L56.0327 20.8043L55.4597 21.5473L54.9024 22.3694L54.3649 23.2626L53.8472 24.2229L53.3492 25.2505L52.8749 26.3374L52.4204 27.4795L51.9857 28.6731L51.5747 29.9141L51.1873 31.1985L50.8237 32.5225L50.4839 33.8821L50.1677 35.2732L50.0926 35.6487H50.0689Z" fill="#DCA52A"/>
<path fill-rule="evenodd" clip-rule="evenodd" d="M60.3835 47.9241C56.455 45.4698 53.23 41.9879 51.084 37.8579L51.1117 37.6998L51.3725 36.3758L51.657 35.0756L51.9653 33.803L52.2934 32.562L52.6451 31.3566L53.0166 30.1946L53.4079 29.0762L53.8189 28.0091L54.2497 26.9934L54.6963 26.0369L55.1587 25.1437L55.6369 24.3177L56.1309 23.5629L56.6368 22.8831L57.1545 22.2863L57.6841 21.7725L58.2177 21.3496L58.7552 21.0177L59.2966 20.7805L59.8341 20.6382L60.3874 20.5908H60.5455L60.7115 20.6106L60.8775 20.6343L61.0435 20.6659L61.2095 20.7054L61.3755 20.7568L61.5415 20.8161L61.7114 20.8833L61.8774 20.9623L62.0473 21.0493L62.2173 21.1441L62.3872 21.2508L62.5572 21.3654L62.7232 21.488L62.8931 21.6184L62.9603 21.6737L62.822 22.314L62.6639 23.0965L62.5097 23.9028L62.3596 24.7367L62.2133 25.5903L62.0711 26.4677L61.9367 27.3649L61.8063 28.2818L61.6798 29.2145L61.5573 30.163L61.4427 31.1273L61.332 32.1075L61.2292 33.0995L61.1304 34.1033L61.0356 35.1151L60.9486 36.1387L60.8656 37.1702L60.7905 38.2057L60.7194 39.2491L60.6562 40.2964L60.5969 41.3437L60.5455 42.395L60.4981 43.4463L60.4586 44.4976L60.4269 45.5449L60.3993 46.5883L60.3795 47.6277V47.936L60.3835 47.9241Z" fill="#DCA52A"/>
<path fill-rule="evenodd" clip-rule="evenodd" d="M72.9583 51.813C68.7808 51.6391 64.8563 50.4692 61.4219 48.5406L61.4337 47.6118L61.4535 46.5763L61.4812 45.5369L61.5128 44.4935L61.5523 43.4462L61.5997 42.3989L61.6511 41.3555L61.7104 40.3121L61.7776 39.2727L61.8487 38.2372L61.9278 37.2097L62.0107 36.19L62.1017 35.1782L62.1965 34.1783L62.2993 33.1903L62.406 32.218L62.5166 31.2577L62.6352 30.3131L62.7577 29.3883L62.8842 28.4832L63.0186 27.5979L63.1569 26.7364L63.2992 25.8985L63.4454 25.0844L63.5956 24.2979L63.7537 23.5391L63.9157 22.8079L63.9513 22.6577L63.971 22.6775L64.3939 23.1992L64.8128 23.7722L65.2239 24.3927L65.627 25.0606L66.0222 25.772L66.4095 26.5269L66.7929 27.3213L67.1644 28.1513L67.528 29.0168L67.8837 29.9139L68.2315 30.8427L68.5674 31.7991L68.8955 32.7832L69.2156 33.7871L69.5239 34.8146L69.8242 35.862L70.1127 36.9251L70.3933 38.0001L70.6621 39.0869L70.919 40.1856L71.168 41.2923L71.4051 42.4028L71.6304 43.5173L71.8438 44.6319L72.0453 45.7464L72.235 46.8569L72.4168 47.9596L72.5828 49.0543L72.7409 50.1372L72.8872 51.2083L72.9622 51.809L72.9583 51.813Z" fill="#DCA52A"/>
<path fill-rule="evenodd" clip-rule="evenodd" d="M79.354 25.5667L79.6623 24.9423L79.9745 24.3376L80.2947 23.7566L80.6187 23.1994L80.9468 22.6658L81.2788 22.156L81.6186 21.6738L81.9625 21.2154L82.3142 20.7885L82.6699 20.3854L82.9387 20.1127L82.8992 19.9902L82.828 19.7649L82.7529 19.5475L82.6818 19.3341L82.6067 19.1286L82.5316 18.931L82.4565 18.7373L82.3814 18.5516L82.3024 18.3698L82.2273 18.1998L82.1522 18.0338L82.0731 17.8758L81.9941 17.7256L81.919 17.5793L81.84 17.445L81.7609 17.3185L81.6858 17.196L81.6068 17.0814L81.5277 16.9786L81.4526 16.8838L81.3736 16.7968L81.2985 16.7178L81.2234 16.6466L81.1523 16.5834L81.0811 16.532L81.014 16.4885L80.9468 16.453L80.8875 16.4253L80.8282 16.4055L80.7729 16.3897L80.7215 16.3818H80.6899L80.516 16.4055L80.3381 16.4846L80.1366 16.6308L79.9153 16.8561L79.686 17.1525L79.4568 17.5161L79.2276 17.9469L79.0023 18.437L78.777 18.9863L78.5557 19.591L78.3383 20.251L78.121 20.9624L77.9115 21.7212L77.706 22.5235L77.5044 23.3732L77.3029 24.2585L77.1092 25.1873L76.9195 26.1516L76.7377 27.1476L76.5559 28.1752L76.382 29.2343L76.2081 30.3172L76.0421 31.4278L75.884 32.5581L75.7259 33.7082L75.5758 34.8781L75.4295 36.0598L75.2912 37.2533L75.2754 37.3679L75.394 36.9134L75.6192 36.0716L75.8485 35.2417L76.0856 34.4196L76.3267 33.6054L76.5757 32.8032L76.8286 32.0127L77.0855 31.2341L77.3503 30.4714L77.619 29.7205L77.8957 28.9853L78.1763 28.2661L78.4648 27.5626L78.7573 26.8788L79.0537 26.2109L79.354 25.5667Z" fill="#DCA52A"/>
<path fill-rule="evenodd" clip-rule="evenodd" d="M97.4989 35.6487C98.7162 32.6411 99.3881 29.3529 99.3881 25.9105C99.392 11.8921 88.2785 0.47031 74.3984 0L74.4142 0.537497L74.4301 1.11452L74.4459 1.70734L74.4617 2.31598L74.4735 2.94042L74.4854 3.57673L74.4933 4.22488L74.5012 4.8849L74.5091 5.55677V6.23655L74.517 6.92423V7.62376V32.3723L74.6316 31.5582L74.7897 30.4713L74.9517 29.4042L75.1177 28.3569L75.2877 27.3333L75.4616 26.3334L75.6394 25.3572L75.8212 24.4087L76.007 23.4878L76.1967 22.5986L76.3903 21.741L76.5879 20.9189L76.7895 20.1324L76.995 19.3815L77.2045 18.6701L77.4179 17.9982L77.6353 17.3698L77.8566 16.7849L78.0819 16.2474L78.3111 15.7574L78.5482 15.3147L78.7893 14.9195L79.0383 14.5757L79.2952 14.2832L79.5679 14.0421L79.8604 13.8564L80.1805 13.7338L80.5085 13.6904L80.6785 13.6983L80.8326 13.7259L80.9828 13.7694L81.125 13.8247L81.2634 13.8959L81.3938 13.9789L81.5203 14.0737L81.6428 14.1765L81.7614 14.2911L81.876 14.4176L81.9906 14.5519L82.1012 14.6982L82.2119 14.8523L82.3226 15.0183L82.4293 15.1961L82.536 15.3819L82.6427 15.5795L82.7454 15.785L82.8482 16.0024L82.951 16.2277L83.0498 16.4608L83.1486 16.7059L83.2474 16.9588L83.3462 17.2197L83.441 17.4924L83.5359 17.773L83.6307 18.0615L83.7256 18.3579L83.8165 18.6622L83.9074 18.9744L83.9706 19.1997L84.1564 19.0693L84.3579 18.9389L84.5595 18.8163L84.765 18.7057L84.9705 18.6029L85.18 18.512L85.3895 18.429L85.6029 18.3579L85.8163 18.2947L86.0337 18.2433L86.255 18.2038L86.4763 18.1761L86.6976 18.1603H86.9308L87.6462 18.2156L88.3536 18.3974L89.0373 18.6859L89.6973 19.0772L90.3336 19.5633L90.9502 20.1403L91.543 20.8043L92.1161 21.5473L92.6733 22.3694L93.2108 23.2626L93.7286 24.2229L94.2265 25.2505L94.7008 26.3374L95.1553 27.4795L95.59 28.6731L96.0011 29.9141L96.3884 31.1985L96.752 32.5225L97.0919 33.8821L97.408 35.2732L97.4831 35.6487H97.4989Z" fill="#DCA52A"/>
<path fill-rule="evenodd" clip-rule="evenodd" d="M87.1822 47.9241C91.1107 45.4698 94.3357 41.9879 96.4817 37.8579L96.4541 37.6998L96.1932 36.3758L95.9087 35.0756L95.6004 33.803L95.2724 32.562L94.9206 31.3566L94.5491 30.1946L94.1579 29.0762L93.7468 28.0091L93.316 26.9934L92.8694 26.0369L92.407 25.1437L91.9288 24.3177L91.4348 23.5629L90.9289 22.8831L90.4112 22.2863L89.8816 21.7725L89.348 21.3496L88.8066 21.0177L88.2651 20.7805L87.7276 20.6382L87.1743 20.5908H87.0163L86.8503 20.6106L86.6843 20.6343L86.5183 20.6659L86.3523 20.7054L86.1863 20.7568L86.0203 20.8161L85.8543 20.8833L85.6883 20.9623L85.5184 21.0493L85.3484 21.1441L85.1785 21.2508L85.0085 21.3654L84.8426 21.488L84.6766 21.6184L84.6094 21.6737L84.7477 22.314L84.9058 23.0965L85.0599 23.9028L85.2101 24.7367L85.3563 25.5903L85.4986 26.4677L85.633 27.3649L85.7634 28.2818L85.8899 29.2145L86.0124 30.163L86.127 31.1273L86.2377 32.1075L86.3404 33.0995L86.4392 34.1033L86.5341 35.1151L86.621 36.1387L86.704 37.1702L86.7791 38.2057L86.8503 39.2491L86.9135 40.2964L86.9728 41.3437L87.0242 42.395L87.0716 43.4463L87.1111 44.4976L87.1427 45.5449L87.1704 46.5883L87.1902 47.6277V47.936L87.1822 47.9241Z" fill="#DCA52A"/>
<path fill-rule="evenodd" clip-rule="evenodd" d="M74.6075 51.813C78.785 51.6391 82.7095 50.4692 86.1439 48.5406L86.1321 47.6118L86.1123 46.5763L86.0847 45.5369L86.0491 44.4935L86.0096 43.4462L85.9621 42.3989L85.9108 41.3555L85.8515 40.3121L85.7843 39.2727L85.7131 38.2372L85.6341 37.2097L85.5511 36.19L85.4602 35.1782L85.3654 34.1783L85.2626 33.1903L85.1559 32.218L85.0452 31.2577L84.9267 30.3131L84.8042 29.3883L84.6777 28.4832L84.5433 27.5979L84.405 26.7364L84.2627 25.8985L84.1165 25.0844L83.9663 24.2979L83.8082 23.5391L83.6462 22.8079L83.6106 22.6577L83.5908 22.6775L83.1679 23.1992L82.749 23.7722L82.338 24.3927L81.9349 25.0606L81.5396 25.772L81.1484 26.5269L80.765 27.3213L80.3935 28.1513L80.0299 29.0168L79.6742 29.9139L79.3264 30.8427L78.9905 31.7991L78.6625 32.7832L78.3423 33.7871L78.0341 34.8146L77.7337 35.862L77.4452 36.9251L77.1646 38.0001L76.8958 39.0869L76.6389 40.1856L76.3939 41.2923L76.1568 42.4028L75.9315 43.5173L75.7181 44.6319L75.5165 45.7464L75.3268 46.8569L75.145 47.9596L74.979 49.0543L74.8209 50.1372L74.6747 51.2083L74.5996 51.809L74.6075 51.813Z" fill="#DCA52A"/>
</svg>
