<svg width="804" height="438" viewBox="0 0 804 438" fill="none" xmlns="http://www.w3.org/2000/svg">
<path d="M425.606 345.993C430.612 345.993 433.062 348.971 433.611 354.758C433.611 355.477 433.717 356.195 433.717 357.039C433.717 358.37 433.484 359.616 433.167 360.44C432.492 360.862 431.605 360.968 430.612 361.052C428.5 361.263 423.938 361.369 419.608 361.369H415.384C415.933 351.358 420.178 346.712 424.614 346.099C424.952 345.993 425.29 345.993 425.627 345.993M428.289 382.722C420.516 382.722 415.278 379.11 415.173 367.769C416.947 367.874 418.404 367.874 420.178 367.874C425.395 367.874 431.182 367.663 434.625 367.262C437.624 366.839 441.299 365.72 442.397 364.896C442.841 363.249 443.073 360.968 443.073 358.814C443.073 357.061 442.967 355.413 442.862 353.871C441.848 345.001 436.737 339.319 426.726 339.319C414.497 339.319 405.373 346.754 405.373 366.67C405.373 375.224 407.379 381.729 411.266 385.446C415.595 389.48 421.171 390.41 426.388 390.41C429.83 390.41 433.167 389.797 434.836 389.375C437.941 388.636 441.172 386.46 441.278 384.39C441.172 383.144 440.94 381.201 440.602 380.272C437.054 382.025 432.935 382.743 428.267 382.743L428.289 382.722ZM389.258 373.64C389.258 375.815 389.258 377.357 389.153 378.603C389.153 379.11 388.941 379.849 388.815 380.04C387.252 381.793 384.041 382.933 380.704 382.933C373.925 382.933 368.919 378.709 368.919 365.488C368.919 351.358 375.593 346.205 382.141 346.205C385.245 346.205 387.59 346.817 389.258 348.169V373.64V373.64ZM398.593 379.321C398.593 373.851 398.826 365.699 398.826 358.581V323.923C398.826 319.276 398.593 317.523 397.939 316.087C393.377 316.087 390.145 316.509 389.047 318.875C389.153 321.346 389.279 324.345 389.279 328.886V341.157C387.505 340.122 384.485 339.298 380.599 339.298C375.255 339.298 369.933 341.263 365.815 345.487C361.358 350.133 358.465 357.145 358.465 366.522C358.465 384.052 366.575 389.86 377.705 390.367C380.704 390.473 383.366 390.051 385.816 388.91C387.041 388.403 388.371 387.263 389.047 386.629C390.166 387.981 393.06 390.367 395.721 390.262C398.614 390.156 400.727 389.121 401.614 387.875C401.614 387.368 401.614 385.51 401.719 384.052C398.171 384.77 398.614 379.321 398.614 379.321H398.593ZM554.99 351.041C539.72 359.743 525.421 362.89 511.144 353.364C496.803 343.818 484.004 337.63 470.382 345.571C456.928 355.012 460.349 379.427 489.031 377.737C489.876 377.188 490.699 372.098 488.397 371.887C479.78 371.084 465.355 365.994 473.74 357.208C487.13 343.142 503.435 365.002 521.429 368.571C532.665 370.81 542.74 367.135 553.617 361.306L557.25 349.69L554.99 351.041V351.041ZM688.682 350.809C688.682 346.268 687.478 342.741 685.07 339.467C687.33 339.721 688.956 339.847 691.216 339.847C693.624 339.847 694.828 337.714 694.828 334.821C694.828 333.173 694.426 331.801 694.025 331.04C690.54 331.167 685.324 331.547 680.234 331.674C679.156 332.434 678.755 331.927 678.227 331.674C675.946 330.533 672.06 329.287 667.519 329.287C654.403 329.287 644.772 337.229 644.772 351.337C644.772 359.278 647.983 365.445 653.601 368.719C651.32 370.747 648.109 373.513 645.575 375.9C644.646 376.914 644.097 377.78 644.097 378.54C644.223 382.194 647.434 385.341 653.326 387.115C653.326 387.115 657.614 388.382 663.485 388.889L665.893 389.016C669.103 389.142 672.187 389.311 675.122 389.649C683.254 390.579 687.985 394.127 689.991 398.794C675.46 393.683 640.443 391.064 634.064 415.247C630.157 430.053 651.32 438.247 661.458 437.994C682.472 437.508 697.975 424.73 701.185 407.665C742.771 427.138 771.326 419.682 793.502 410.558C804.02 406.25 797.578 395.5 790.017 400.062C766.151 412.29 738.082 413.22 701.713 401.266C701.375 387.643 688.914 382.321 680.867 381.053C679.515 380.842 677.91 380.673 676.178 380.546C672.166 380.293 668.153 379.913 664.393 379.659C659.05 379.152 656.22 377.78 656.22 376.259C656.22 375.625 656.494 374.865 657.149 374.126C658.078 373.112 659.155 372.225 660.359 371.106C662.366 371.486 664.119 371.739 666.653 371.739C680.297 371.739 688.597 364.051 688.597 350.83L688.682 350.809ZM691.153 405.342C690.414 421.245 675.207 430.01 660.803 430.074C633.135 430.222 632.839 392.501 691.153 405.342ZM665.935 336.574C672.884 336.574 676.77 341.368 677.572 349.563C678.375 358.37 675.566 364.305 668.343 364.305C661.12 364.305 657.233 359.004 656.431 350.703C655.502 341.263 659.789 336.595 665.935 336.595V336.574ZM788.243 376.47C788.116 377.209 787.969 377.949 787.842 378.202C785.962 380.314 781.569 382.046 777.535 382.046H776.606C772.466 381.793 769.509 379.575 769.509 373.239C769.509 365.424 775.001 362.826 781.4 361.834C782.731 361.707 784.209 361.58 785.814 361.58C786.744 361.58 787.673 361.58 788.497 361.707V370.514C788.497 373.112 788.497 374.971 788.222 376.47H788.243ZM762.181 338.137C762.455 339.615 762.983 341.854 764.187 343.1C765.264 343.1 766.595 342.72 768.052 342.107C771.938 340.629 777.408 338.876 782.097 338.876C787.842 338.876 788.518 341.981 788.518 347.556V354.632C787.314 354.378 785.835 354.252 784.104 354.252C782.9 354.252 781.696 354.252 780.344 354.378C772.339 355.117 757.745 358.961 757.745 374.231C757.745 385.636 765.898 390.621 774.452 390.621C778.063 390.621 781.273 390.367 784.209 388.995C785.688 388.255 787.293 386.883 788.095 386.143C789.426 387.875 792.911 390.621 796.121 390.621C799.606 390.494 802.14 389.121 803.196 387.748C803.196 387.009 803.196 384.897 803.323 383.165C799.036 383.905 799.585 377.463 799.585 377.463C799.585 370.894 799.859 360.968 799.859 352.414V346.838C799.859 336.299 796.649 330.217 786.765 329.604C784.505 329.477 784.23 329.477 782.097 329.477C773.142 329.731 765.116 332.941 762.307 335.433C762.181 335.813 762.054 336.299 762.054 336.785C762.054 337.271 762.054 337.778 762.181 338.158V338.137ZM752.845 298.811C750.987 298.811 742.686 309.117 738.399 314.82C738.272 315.2 738.272 315.559 738.272 315.812C738.272 317.798 740.553 320.037 742.412 320.396C746.15 317.059 753.373 310.596 758.189 306.139C758.991 305.4 759.393 305.02 759.667 304.64C759.667 302.295 755.802 298.811 752.845 298.811ZM750.438 330.681C744.946 330.681 740.807 331.061 739.476 333.659C739.603 336.891 739.751 340.734 739.751 346.437V368.402C739.751 375.963 739.624 383.292 739.624 389.628C747.122 389.501 748.98 389.501 749.91 388.234C751.114 386.502 751.515 384.517 751.515 381.666V339.488C751.515 334.272 751.388 332.413 750.438 330.681V330.681ZM725.621 339.869C726.297 339.869 727.1 339.869 728.029 340.122C729.085 340.249 730.31 340.375 731.239 340.375C731.69 340.375 732.091 340.333 732.443 340.249C734.048 338.01 734.576 334.779 734.576 333.047C734.175 331.315 732.295 330.322 728.831 329.942C726.424 329.562 724.143 330.195 721.608 330.935C718.799 331.801 715.589 333.3 712.505 335.771C711.83 333.659 710.774 332.054 708.366 332.054C708.091 332.054 707.838 332.054 707.437 332.181C704.374 333.427 702.769 334.293 701.966 335.032C702.896 337.503 703.698 340.354 703.698 344.325L703.572 365.298C703.572 374.971 703.445 382.912 703.297 389.628C710.52 389.628 712.125 389.501 713.857 388.361C714.934 386.988 715.061 385.51 715.061 383.398V343.818C717.743 341.22 721.207 339.847 725.621 339.847V339.869ZM616.619 337.503C622.638 337.503 625.574 341.094 626.25 348.042C626.25 348.908 626.377 349.774 626.377 350.767C626.377 352.372 626.102 353.871 625.701 354.864C624.898 355.35 623.821 355.477 622.638 355.603C620.104 355.857 614.613 355.983 609.396 355.983H604.327C604.982 343.966 610.072 338.369 615.415 337.63C615.816 337.503 616.218 337.503 616.619 337.503V337.503ZM619.829 381.666C610.473 381.666 604.179 377.336 604.052 363.692C606.186 363.819 607.917 363.819 610.072 363.819C616.344 363.819 623.314 363.566 627.454 363.08C631.065 362.594 635.48 361.221 636.81 360.229C637.338 358.243 637.613 355.519 637.613 352.9C637.613 350.788 637.486 348.802 637.338 346.944C636.134 336.278 629.988 329.456 617.95 329.456C603.25 329.456 592.288 338.39 592.288 362.32C592.288 372.605 594.696 380.42 599.385 384.897C604.602 389.755 611.276 390.874 617.569 390.874C621.709 390.874 625.722 390.135 627.728 389.628C631.467 388.741 635.353 386.122 635.479 383.651C635.353 382.173 635.078 379.807 634.677 378.688C630.389 380.8 625.447 381.666 619.85 381.666H619.829ZM581.559 377.526V311.926C581.559 305.611 581.411 302.718 580.63 300.183C578.729 300.183 576.997 300.226 575.519 300.395C571.675 300.733 569.795 302.528 569.88 305.78C569.985 309.012 570.07 312.75 570.07 317.713V382.933C570.07 385.446 571.147 387.854 573.28 389.248C574.758 390.156 576.49 390.917 578.095 390.917C581.58 390.79 584.115 389.523 585.171 388.002C585.171 387.368 585.171 385.087 585.319 383.334C581.179 384.095 581.58 377.526 581.58 377.526H581.559ZM548.886 387.474C551.019 389.354 552.498 389.734 554.103 389.734C556.363 389.734 559.974 389.354 561.579 388.783C561.854 388.53 562.107 388.255 562.107 387.854C562.107 387.854 561.981 387.601 561.981 387.474C559.721 380.715 557.165 372.605 553.427 362.129C548.569 347.578 541.621 326.901 535.96 309.899L521.725 308.61C515.093 328.633 501.978 363.523 495.008 384.158C494.48 385.615 494.079 387.073 493.931 388.804C496.338 389.375 500.077 389.755 501.956 389.755C504.892 389.755 505.695 389.079 506.096 387.875C513.214 366.67 515.262 360.757 519.867 346.226C523.605 335.074 525.886 327.133 528.146 318.769C529.35 323.416 530.955 329.52 533.764 338.263C541.832 362.932 537.46 352.921 548.865 387.474H548.886ZM84.9981 339.594C65.1449 353.766 52.7473 345.55 37.6885 340.333C29.3248 337.419 13.928 334.905 5.64885 341.03C-1.6588 346.416 -2.60922 361.39 7.16951 364.896C14.7517 366.607 18.5956 359.637 14.8784 358.518C9.66172 359.532 7.27511 356.87 7.29624 353.724C7.29624 342.213 26.6847 345.001 33.1053 347.345C42.0181 350.598 47.2982 355.603 56.4645 356.575C65.1027 357.504 72.8961 354.949 80.6895 351.062C84.2166 349.288 85.0192 346.838 85.0192 343.966V339.594H84.9981ZM211.953 383.398V344.705C214.762 341.854 218.627 339.488 223.442 339.488C231.468 339.488 234.002 342.952 234.002 352.52V385.383C234.002 387.368 234.277 389.1 235.079 390.494C242.704 390.494 244.71 390.135 246.041 388.995C245.914 384.031 245.766 378.075 245.766 371.253V352.266C245.766 338.242 242.683 330.428 226.779 330.428C223.843 330.428 221.309 330.935 218.5 331.779C215.564 332.645 212.481 334.145 209.27 336.616C208.742 334.504 207.538 332.899 205.131 332.899C205.004 332.899 204.582 332.899 204.201 333.026C201.266 334.272 199.513 335.138 198.858 335.877C199.787 338.348 200.463 341.22 200.463 345.17V366.248C200.463 375.794 200.336 383.736 200.189 390.452C205.279 390.367 207.517 390.388 208.932 389.987C212.1 390.262 212.396 387.368 211.953 383.377V383.398ZM182.004 390.494C185.763 389.692 189.628 387.009 189.755 384.517C189.628 383.017 189.354 380.673 188.953 379.554C184.665 381.666 179.723 382.532 174.105 382.532C164.749 382.532 158.476 378.181 158.328 364.537C160.461 364.664 162.214 364.664 164.347 364.664C170.62 364.664 177.59 364.41 181.729 363.925C185.341 363.418 189.755 362.066 191.086 361.073C191.614 359.088 191.888 356.364 191.888 353.766C191.888 351.654 191.762 349.668 191.614 347.81C190.41 337.144 184.264 330.322 172.225 330.322C157.525 330.322 146.564 339.256 146.564 363.185C146.564 373.471 149.394 380.884 153.639 385.763C158.56 391.402 173.45 392.332 181.983 390.494H182.004ZM315.886 338.369C321.905 338.369 324.841 341.981 325.496 348.929C325.496 349.795 325.622 350.661 325.622 351.654C325.622 353.259 325.348 354.758 324.947 355.751C324.144 356.237 323.067 356.364 321.863 356.49C319.307 356.744 313.837 356.849 308.621 356.849H303.531C304.206 344.832 309.275 339.235 314.64 338.496C315.041 338.369 315.442 338.369 315.844 338.369H315.886ZM319.096 382.532C309.74 382.532 303.446 378.181 303.319 364.537C305.453 364.664 307.206 364.664 309.339 364.664C315.611 364.664 322.581 364.41 326.721 363.925C330.332 363.418 334.746 362.066 336.077 361.073C336.605 359.088 336.88 356.364 336.88 353.766C336.88 351.654 336.753 349.668 336.605 347.81C335.401 337.144 329.255 330.322 317.217 330.322C302.517 330.322 291.555 339.256 291.555 363.185C291.555 373.471 293.963 381.286 298.631 385.763C303.847 390.621 310.521 391.74 316.815 391.74C320.955 391.74 324.968 391.001 326.974 390.494C330.734 389.607 334.599 387.009 334.725 384.517C334.599 383.017 334.324 380.673 333.923 379.554C329.635 381.666 324.693 382.532 319.075 382.532H319.096ZM287.352 380.8C286.275 381.666 280.129 383.398 278.123 383.292C272.779 383.292 271.575 378.455 271.026 371.507C271.026 367.41 270.9 362.573 270.9 357.124C270.9 351.675 271.026 345.972 271.174 340.249C276.919 340.249 278.651 340.249 282.136 340.122C283.213 340.122 284.269 339.995 285.346 339.869C287.226 339.488 288.028 338.137 288.429 331.927H271.195C271.195 326.837 271.322 321.642 271.449 315.939C265.176 316.319 262.367 318.41 261.417 320.902L260.762 332.075C258.755 332.941 254.595 333.3 252.736 334.8C251.659 335.792 251.532 335.285 251.532 339.15C253.137 339.89 255.271 340.397 259.558 340.397V371.042C259.558 381.096 261.839 391.909 274.258 391.909C278.397 391.909 282.938 391.043 285.494 389.544C286.571 388.804 287.226 388.065 287.5 387.073C287.648 385.953 287.648 384.707 287.648 383.609C287.648 382.616 287.5 381.624 287.373 380.884L287.352 380.8ZM170.916 338.369C176.935 338.369 179.871 341.981 180.547 348.929C180.547 349.795 180.673 350.661 180.673 351.654C180.673 353.259 180.42 354.758 180.019 355.751C179.216 356.237 178.139 356.364 176.956 356.49C174.401 356.744 168.93 356.849 163.714 356.849H158.624C159.278 344.832 164.368 339.235 169.712 338.496C170.113 338.369 170.514 338.369 170.916 338.369V338.369ZM104.915 334.293C104.387 332.307 103.035 330.069 100.099 330.069C99.9724 330.069 99.5711 330.069 99.022 330.195C95.5372 331.674 93.5307 332.793 92.7493 333.659C93.8264 336.637 94.6079 339.974 94.6079 344.578L93.2773 370.493C93.5307 383.651 96.6143 390.98 112.117 391.592C115.052 391.592 117.608 391.107 120.417 390.241C123.353 389.354 126.436 387.854 129.647 385.383C130.175 387.495 131.378 389.1 133.786 389.1C133.913 389.1 134.314 389.1 134.715 388.973C137.651 387.727 139.383 386.861 140.059 386.122C139.13 383.651 138.454 380.779 138.454 376.808V355.73C138.454 346.184 138.602 338.242 138.728 331.547C131.505 331.674 130.027 331.547 128.422 332.793C127.218 334.398 126.943 336.025 126.943 338.622V378.054C124.662 380.652 119.868 382.637 115.179 382.405C108.759 382.405 105.02 380.04 105.02 368.888L106.351 346.184C106.351 339.847 105.675 337.123 104.872 334.272L104.915 334.293ZM55.3028 390.494C58.4709 390.494 61.2165 389.269 62.2092 388.868C61.4489 322.951 61.9346 367.832 61.9346 310.786H80.3727C84.7024 310.786 87.2791 310.786 89.3066 310.258C91.3131 309.582 92.0523 308.125 92.6225 301.577H56.739C53.1486 301.704 50.2551 303.182 48.9667 303.584C49.1146 307.85 49.2413 312.412 49.2413 318.284V389.396C50.8253 390.22 52.8529 390.494 55.3028 390.494V390.494Z" fill="white"/>
<path d="M206.018 409.419V415.776H202.174C201.561 414.509 201.033 413.643 200.611 413.199C200.189 412.756 199.661 412.397 199.069 412.143C198.478 411.89 197.464 411.763 196.028 411.763H189.924V421.373H193.62C194.444 421.373 195.077 421.289 195.542 421.12C196.007 420.951 196.387 420.676 196.704 420.296C197.021 419.916 197.295 419.303 197.591 418.501H200.759V426.632H197.591C197.316 425.851 197.042 425.259 196.725 424.858C196.408 424.457 196.028 424.161 195.584 423.992C195.141 423.823 194.486 423.739 193.62 423.739H189.924V434.425H195.986C196.64 434.425 197.189 434.404 197.633 434.341C198.077 434.278 198.478 434.172 198.837 434.024C199.196 433.876 199.534 433.686 199.851 433.433C200.189 433.179 200.463 432.905 200.717 432.609C200.97 432.313 201.223 431.933 201.519 431.447C201.794 430.962 202.111 430.307 202.427 429.462H206.271L205.743 436.77H178.266V435.46C178.963 435.334 179.512 435.186 179.913 435.038C180.314 434.89 180.61 434.679 180.8 434.404C180.99 434.13 181.117 433.792 181.18 433.369C181.244 432.947 181.265 432.419 181.265 431.785V414.53C181.265 413.896 181.244 413.368 181.18 412.946C181.138 412.524 181.011 412.165 180.821 411.911C180.631 411.637 180.335 411.425 179.934 411.256C179.533 411.087 178.984 410.94 178.266 410.813V409.503H206.018V409.419Z" fill="white"/>
<path d="M241.668 430.011C242.133 431.595 242.914 432.778 244.012 433.559C245.111 434.34 246.695 434.721 248.807 434.721C249.905 434.721 250.898 434.594 251.764 434.319C252.651 434.045 253.348 433.622 253.876 433.031C254.404 432.44 254.678 431.7 254.678 430.792C254.678 429.969 254.467 429.25 254.024 428.638C253.601 428.025 252.904 427.455 251.954 426.906C251.003 426.357 249.673 425.787 247.983 425.174C246.526 424.646 245.216 424.118 244.034 423.548C242.851 422.978 241.858 422.365 241.035 421.689C240.211 421.013 239.556 420.274 239.091 419.493C238.648 418.69 238.416 417.782 238.416 416.789C238.416 415.142 238.986 413.748 240.105 412.608C241.246 411.467 242.893 410.58 245.047 409.989C247.202 409.397 249.694 409.102 252.524 409.102C254.193 409.102 255.777 409.165 257.276 409.292C258.776 409.418 260.508 409.63 262.451 409.968V415.776H258.628C258.269 414.72 257.825 413.875 257.276 413.262C256.727 412.65 256.03 412.185 255.206 411.889C254.383 411.594 253.348 411.446 252.102 411.446C251.046 411.446 250.095 411.573 249.25 411.847C248.406 412.122 247.751 412.523 247.265 413.051C246.779 413.579 246.547 414.213 246.547 414.973C246.547 415.733 246.758 416.409 247.181 416.979C247.603 417.55 248.3 418.099 249.293 418.648C250.285 419.197 251.721 419.81 253.601 420.507C255.903 421.351 257.698 422.196 259.008 423.02C260.317 423.844 261.289 424.731 261.923 425.702C262.535 426.674 262.852 427.793 262.852 429.081C262.852 430.729 262.324 432.144 261.268 433.369C260.212 434.573 258.67 435.502 256.621 436.157C254.594 436.811 252.249 437.128 249.567 437.128C247.666 437.128 245.681 437.044 243.632 436.896C241.563 436.748 239.641 436.516 237.824 436.22V430.053H241.647L241.668 430.011Z" fill="white"/>
<path d="M301.587 436.749V435.439C302.369 435.334 302.981 435.228 303.446 435.059C303.91 434.911 304.248 434.7 304.46 434.404C304.692 434.13 304.819 433.771 304.882 433.327C304.945 432.905 304.966 432.356 304.966 431.722V411.763H302.707C301.587 411.763 300.721 411.848 300.13 412.038C299.539 412.228 299.011 412.524 298.567 412.925C298.145 413.326 297.764 413.854 297.448 414.53C297.131 415.206 296.856 415.84 296.666 416.452H292.822V409.419H325.728V416.452H321.884C321.525 415.544 321.25 414.889 321.039 414.446C320.849 414.023 320.617 413.664 320.363 413.368C320.11 413.073 319.835 412.819 319.561 412.608C319.286 412.418 318.99 412.249 318.652 412.122C318.336 411.996 317.956 411.911 317.47 411.848C316.984 411.784 316.371 411.763 315.611 411.763H313.605V431.722C313.605 432.419 313.626 432.968 313.689 433.327C313.753 433.686 313.837 434.003 313.985 434.214C314.133 434.447 314.323 434.616 314.534 434.763C314.745 434.911 315.041 435.038 315.421 435.144C315.801 435.249 316.308 435.355 316.984 435.418V436.728H301.545L301.587 436.749Z" fill="white"/>
<path d="M359.754 425.934H369.807L365.351 414.677L359.754 425.934V425.934ZM370.631 428.279H358.698L357.79 430.18C357.515 430.708 357.304 431.236 357.135 431.721C356.966 432.228 356.882 432.756 356.882 433.306C356.882 434.615 357.853 435.312 359.796 435.418V436.727H347.863V435.418C348.539 435.354 349.152 435.185 349.68 434.89C350.208 434.594 350.672 434.193 351.095 433.686C351.517 433.179 351.982 432.44 352.468 431.51L364.126 409.271H371.581L380.811 431.7C381.212 432.693 381.571 433.411 381.846 433.834C382.121 434.256 382.48 434.594 382.923 434.847C383.367 435.101 384 435.291 384.803 435.418V436.727H369.364V435.418C370.335 435.333 371.053 435.143 371.518 434.847C371.983 434.53 372.215 434.108 372.215 433.538C372.215 433.137 372.152 432.672 372.025 432.165C371.898 431.658 371.687 431.025 371.37 430.243L370.61 428.279H370.631Z" fill="white"/>
<path d="M448.776 409.419V410.728C448.036 410.897 447.508 411.045 447.192 411.172C446.875 411.278 446.621 411.446 446.41 411.658C446.199 411.848 446.03 412.165 445.924 412.566C445.819 412.967 445.755 413.601 445.755 414.446V436.749H438.659L426.071 421.183C424.382 419.071 423.136 417.424 422.333 416.22H422.079C422.27 419.092 422.375 422.112 422.375 425.301V431.743C422.375 432.736 422.439 433.454 422.565 433.834C422.713 434.235 422.967 434.552 423.326 434.785C423.685 435.017 424.36 435.228 425.374 435.418V436.728H414.793V435.418C415.49 435.291 416.039 435.144 416.44 434.975C416.842 434.827 417.137 434.594 417.349 434.32C417.539 434.045 417.665 433.707 417.729 433.285C417.792 432.884 417.813 432.356 417.813 431.722V414.403C417.813 413.411 417.75 412.714 417.623 412.334C417.496 411.953 417.243 411.637 416.863 411.383C416.483 411.13 415.786 410.918 414.793 410.728V409.419H426.113L436.019 421.732C436.631 422.514 437.434 423.548 438.427 424.879C439.419 426.189 440.285 427.456 441.046 428.617H441.489C441.299 425.428 441.193 421.943 441.193 418.163V414.446C441.193 413.58 441.151 412.946 441.046 412.566C440.961 412.186 440.813 411.89 440.623 411.679C440.433 411.489 440.159 411.32 439.842 411.172C439.525 411.045 438.976 410.897 438.215 410.728V409.419H448.776V409.419Z" fill="white"/>
<path d="M508.378 410.052V415.86H504.576C504.133 414.361 503.414 413.241 502.443 412.523C501.471 411.805 500.204 411.446 498.641 411.446C495.684 411.446 493.467 412.46 491.967 414.487C490.447 416.515 489.686 419.514 489.686 423.485C489.686 427.181 490.383 429.969 491.756 431.89C493.15 433.791 495.156 434.742 497.818 434.742C499.19 434.742 500.289 434.573 501.155 434.256C501.999 433.918 502.696 433.432 503.203 432.778C503.71 432.123 504.154 431.215 504.534 430.011H508.357V436.072C506.308 436.431 504.428 436.664 502.739 436.833C501.049 436.98 499.275 437.065 497.459 437.065C493.593 437.065 490.425 436.558 487.954 435.565C485.504 434.573 483.688 433.052 482.526 431.046C481.365 429.018 480.773 426.463 480.773 423.358C480.773 420.464 481.47 417.951 482.822 415.797C484.195 413.664 486.201 411.995 488.863 410.833C491.524 409.672 494.713 409.102 498.43 409.102C500.31 409.102 502.021 409.186 503.541 409.313C505.083 409.461 506.667 409.693 508.314 410.031" fill="white"/>
<path d="M551.907 431.721C551.907 432.186 551.906 432.609 551.97 433.01C552.012 433.411 552.075 433.749 552.181 434.002C552.287 434.256 552.456 434.467 552.667 434.636C552.878 434.805 553.174 434.974 553.554 435.08C553.934 435.206 554.378 435.312 554.927 435.418V436.727H540.248V435.418C540.945 435.291 541.494 435.143 541.895 434.995C542.297 434.847 542.592 434.636 542.782 434.362C542.973 434.087 543.099 433.749 543.163 433.327C543.226 432.904 543.247 432.376 543.247 431.743V414.466C543.247 413.833 543.226 413.304 543.163 412.882C543.12 412.46 542.994 412.122 542.804 411.847C542.614 411.573 542.318 411.361 541.917 411.192C541.515 411.023 540.966 410.876 540.248 410.749V409.439H554.927V410.749C554.166 410.897 553.596 411.066 553.237 411.214C552.878 411.383 552.603 411.573 552.413 411.826C552.223 412.058 552.097 412.375 552.033 412.755C551.949 413.136 551.928 413.706 551.928 414.466V431.721H551.907Z" fill="white"/>
<path d="M596.111 425.934H606.165L601.708 414.677L596.111 425.934ZM606.989 428.279H595.055L594.147 430.18C593.873 430.708 593.662 431.236 593.493 431.721C593.324 432.228 593.239 432.756 593.239 433.306C593.239 434.615 594.211 435.312 596.154 435.418V436.727H584.221V435.418C584.897 435.354 585.509 435.185 586.037 434.89C586.565 434.594 587.03 434.193 587.452 433.686C587.875 433.179 588.339 432.44 588.825 431.51L600.483 409.271H607.939L617.168 431.7C617.57 432.693 617.929 433.411 618.203 433.834C618.478 434.256 618.837 434.594 619.281 434.847C619.724 435.101 620.358 435.291 621.16 435.418V436.727H605.721V435.418C606.693 435.333 607.411 435.143 607.876 434.847C608.34 434.53 608.573 434.108 608.573 433.538C608.573 433.137 608.509 432.672 608.382 432.165C608.256 431.658 608.044 431.025 607.728 430.243L606.967 428.279H606.989Z" fill="white"/>
<path fill-rule="evenodd" clip-rule="evenodd" d="M364.504 136.628L362.878 133.291L361.188 130.059L359.499 126.955L357.767 123.977L356.014 121.125L354.219 118.401L352.423 115.824L350.565 113.374L348.706 111.093L346.805 108.939L345.369 107.482L345.559 106.827L345.961 105.623L346.341 104.461L346.742 103.321L347.143 102.223L347.545 101.167L347.946 100.132L348.347 99.139L348.748 98.1675L349.171 97.2593L349.572 96.3723L349.995 95.5274L350.396 94.7249L350.818 93.9434L351.241 93.2253L351.642 92.5495L352.064 91.8947L352.487 91.2823L352.888 90.7331L353.31 90.2262L353.712 89.7616L354.134 89.3392L354.514 88.959L354.916 88.6211L355.296 88.3465L355.655 88.1142L356.014 87.9241L356.331 87.7763L356.647 87.6707L356.943 87.5862L357.218 87.5439H357.387L358.295 87.6707L359.245 88.0931L360.343 88.8745L361.526 90.0784L362.73 91.6624L363.955 93.6055L365.18 95.9076L366.405 98.5265L367.609 101.462L368.792 104.694L369.953 108.221L371.094 112.022L372.234 116.078L373.332 120.365L374.41 124.906L375.466 129.637L376.501 134.6L377.514 139.753L378.507 145.076L379.479 150.567L380.408 156.227L381.316 162.014L382.203 167.949L383.069 173.99L383.914 180.136L384.716 186.387L385.498 192.702L386.237 199.081L386.3 199.693L385.667 197.264L384.484 192.766L383.259 188.33L381.992 183.937L380.704 179.587L379.373 175.299L378.021 171.075L376.648 166.914L375.233 162.838L373.776 158.825L372.319 154.897L370.798 151.053L369.277 147.293L367.715 143.64L366.13 140.07L364.504 136.628Z" fill="white"/>
<path fill-rule="evenodd" clip-rule="evenodd" d="M267.562 190.506C261.057 174.433 257.445 156.861 257.445 138.465C257.445 63.5512 316.836 2.51332 391.011 0L390.926 2.87237L390.842 5.95595L390.757 9.124L390.673 12.3765L390.609 15.7136L390.546 19.1139L390.504 22.5777L390.461 26.1048L390.419 29.6952V33.3279L390.377 37.0029V40.7412V172.997L389.764 168.646L388.92 162.838L388.054 157.136L387.167 151.539L386.258 146.069L385.329 140.725L384.379 135.508L383.407 130.439L382.415 125.518L381.401 120.766L380.366 116.183L379.31 111.79L378.233 107.587L377.134 103.574L376.015 99.7727L374.875 96.1822L373.713 92.824L372.53 89.6982L371.326 86.8259L370.101 84.2069L368.834 81.8415L367.546 79.7294L366.215 77.8919L364.842 76.329L363.385 75.0407L361.822 74.048L360.111 73.3933L358.358 73.161L357.45 73.2032L356.627 73.3511L355.824 73.5834L355.064 73.8791L354.324 74.2592L353.627 74.7028L352.952 75.2097L352.297 75.7588L351.663 76.3713L351.051 77.0471L350.438 77.7652L349.847 78.5467L349.256 79.3704L348.664 80.2574L348.094 81.2078L347.524 82.2005L346.975 83.2565L346.425 84.3548L345.876 85.5164L345.327 86.7203L344.799 87.9664L344.271 89.2758L343.743 90.6275L343.215 92.0215L342.708 93.4788L342.201 94.9783L341.694 96.5201L341.188 98.1041L340.702 99.7304L340.216 101.399L339.878 102.603L338.885 101.906L337.808 101.209L336.731 100.554L335.633 99.9627L334.535 99.4136L333.415 98.9278L332.296 98.4843L331.155 98.1041L330.015 97.7662L328.853 97.4916L327.692 97.2804L326.509 97.1326L325.326 97.0481H324.08L320.257 97.3438L316.477 98.3153L312.823 99.8571L309.296 101.948L305.895 104.546L302.601 107.629L299.433 111.178L296.37 115.148L293.392 119.541L290.52 124.315L287.753 129.447L285.092 134.938L282.557 140.746L280.129 146.85L277.805 153.228L275.609 159.86L273.539 166.724L271.596 173.8L269.78 181.065L268.09 188.499L267.689 190.506H267.562Z" fill="white"/>
<path fill-rule="evenodd" clip-rule="evenodd" d="M322.686 256.106C301.693 242.99 284.459 224.383 272.99 202.312L273.138 201.467L274.532 194.392L276.053 187.443L277.7 180.643L279.453 174.011L281.333 167.569L283.318 161.36L285.409 155.383L287.606 149.68L289.908 144.252L292.294 139.141L294.765 134.368L297.321 129.954L299.961 125.92L302.664 122.287L305.431 119.098L308.261 116.352L311.113 114.092L313.985 112.318L316.878 111.051L319.751 110.291L322.708 110.037H323.552L324.439 110.143L325.327 110.269L326.214 110.438L327.101 110.65L327.988 110.924L328.875 111.241L329.783 111.6L330.67 112.022L331.578 112.487L332.486 112.994L333.395 113.564L334.303 114.177L335.19 114.831L336.098 115.528L336.457 115.824L335.718 119.246L334.873 123.427L334.049 127.736L333.247 132.192L332.465 136.754L331.705 141.443L330.987 146.237L330.29 151.137L329.614 156.122L328.959 161.191L328.347 166.344L327.755 171.582L327.206 176.883L326.678 182.248L326.171 187.654L325.707 193.125L325.263 198.637L324.862 204.171L324.482 209.746L324.144 215.343L323.827 220.94L323.552 226.558L323.299 232.176L323.088 237.794L322.919 243.391L322.771 248.967L322.665 254.522V256.169L322.686 256.106Z" fill="white"/>
<path fill-rule="evenodd" clip-rule="evenodd" d="M389.893 276.888C367.568 275.959 346.596 269.707 328.242 259.4L328.306 254.437L328.411 248.904L328.559 243.349L328.728 237.773L328.939 232.176L329.193 226.579L329.467 221.003L329.784 215.428L330.143 209.873L330.523 204.34L330.946 198.848L331.389 193.399L331.875 187.992L332.382 182.649L332.931 177.369L333.501 172.173L334.093 167.041L334.726 161.993L335.381 157.051L336.057 152.214L336.775 147.483L337.514 142.879L338.274 138.402L339.056 134.051L339.858 129.848L340.703 125.793L341.569 121.886L341.759 121.083L341.865 121.189L344.125 123.976L346.363 127.039L348.56 130.355L350.714 133.924L352.826 137.726L354.896 141.76L356.945 146.005L358.93 150.44L360.873 155.066L362.774 159.86L364.633 164.823L366.428 169.934L368.181 175.193L369.892 180.558L371.539 186.049L373.144 191.646L374.686 197.328L376.185 203.072L377.622 208.88L378.994 214.752L380.325 220.666L381.592 226.6L382.796 232.556L383.937 238.512L385.014 244.468L386.028 250.403L386.999 256.296L387.886 262.146L388.731 267.933L389.512 273.657L389.914 276.867L389.893 276.888Z" fill="white"/>
<path fill-rule="evenodd" clip-rule="evenodd" d="M424.066 136.628L425.713 133.291L427.382 130.059L429.092 126.955L430.824 123.977L432.577 121.125L434.351 118.401L436.168 115.824L438.005 113.374L439.885 111.093L441.786 108.939L443.222 107.482L443.011 106.827L442.631 105.623L442.229 104.461L441.849 103.321L441.448 102.223L441.047 101.167L440.645 100.132L440.244 99.139L439.822 98.1675L439.42 97.2593L439.019 96.3723L438.597 95.5274L438.174 94.7249L437.773 93.9434L437.35 93.2253L436.928 92.5495L436.527 91.8947L436.104 91.2823L435.682 90.7331L435.281 90.2262L434.858 89.7616L434.457 89.3392L434.056 88.959L433.676 88.6211L433.295 88.3465L432.936 88.1142L432.577 87.9241L432.26 87.7763L431.944 87.6707L431.648 87.5862L431.373 87.5439H431.204L430.275 87.6707L429.325 88.0931L428.248 88.8745L427.065 90.0784L425.84 91.6624L424.615 93.6055L423.39 95.9076L422.186 98.5265L420.982 101.462L419.799 104.694L418.638 108.221L417.476 112.022L416.357 116.078L415.259 120.365L414.181 124.906L413.104 129.637L412.069 134.6L411.056 139.753L410.084 145.076L409.113 150.567L408.183 156.227L407.254 162.014L406.367 167.949L405.522 173.99L404.677 180.136L403.875 186.387L403.093 192.702L402.354 199.081L402.27 199.693L402.903 197.264L404.107 192.766L405.332 188.33L406.599 183.937L407.888 179.587L409.218 175.299L410.57 171.075L411.943 166.914L413.358 162.838L414.794 158.825L416.272 154.897L417.772 151.053L419.314 147.293L420.877 143.64L422.461 140.07L424.066 136.628Z" fill="white"/>
<path fill-rule="evenodd" clip-rule="evenodd" d="M521.029 190.506C527.534 174.433 531.124 156.861 531.124 138.465C531.145 63.5512 471.755 2.51332 397.58 0L397.665 2.87237L397.749 5.95595L397.834 9.124L397.918 12.3765L397.981 15.7136L398.045 19.1139L398.087 22.5777L398.129 26.1048L398.171 29.6952V33.3279L398.214 37.0029V40.7412V172.997L398.826 168.646L399.671 162.838L400.537 157.136L401.424 151.539L402.332 146.069L403.261 140.725L404.212 135.508L405.183 130.439L406.176 125.518L407.19 120.766L408.225 116.183L409.281 111.79L410.358 107.587L411.456 103.574L412.576 99.7727L413.716 96.1822L414.878 92.824L416.06 89.6982L417.264 86.8259L418.489 84.2069L419.756 81.8415L421.045 79.7294L422.375 77.8919L423.748 76.329L425.206 75.0407L426.768 74.048L428.479 73.3933L430.232 73.161L431.14 73.2032L431.964 73.3511L432.767 73.5834L433.527 73.8791L434.266 74.2592L434.963 74.7028L435.639 75.2097L436.294 75.7588L436.927 76.3713L437.54 77.0471L438.152 77.7652L438.744 78.5467L439.335 79.3704L439.926 80.2574L440.497 81.2078L441.067 82.2005L441.637 83.2565L442.186 84.3548L442.735 85.5164L443.285 86.7203L443.813 87.9664L444.341 89.2758L444.869 90.6275L445.397 92.0215L445.903 93.4788L446.41 94.9783L446.917 96.5201L447.424 98.1041L447.91 99.7304L448.396 101.399L448.734 102.603L449.726 101.906L450.803 101.209L451.881 100.554L452.979 99.9627L454.077 99.4136L455.196 98.9278L456.316 98.4843L457.456 98.1041L458.597 97.7662L459.758 97.4916L460.941 97.2804L462.124 97.1326L463.307 97.0481H464.553L468.376 97.3438L472.156 98.3153L475.81 99.8571L479.337 101.948L482.737 104.546L486.032 107.629L489.2 111.178L492.263 115.148L495.241 119.541L498.113 124.315L500.88 129.447L503.541 134.938L506.075 140.746L508.504 146.85L510.828 153.228L513.024 159.86L515.094 166.724L517.037 173.8L518.853 181.065L520.543 188.499L520.944 190.506H521.029Z" fill="white"/>
<path fill-rule="evenodd" clip-rule="evenodd" d="M465.906 256.106C486.899 242.99 504.133 224.383 515.602 202.312L515.454 201.467L514.06 194.392L512.539 187.443L510.892 180.643L509.139 174.011L507.259 167.569L505.274 161.36L503.183 155.383L500.987 149.68L498.684 144.252L496.298 139.141L493.827 134.368L491.271 129.954L488.631 125.92L485.928 122.287L483.161 119.098L480.331 116.352L477.48 114.092L474.586 112.318L471.693 111.051L468.82 110.291L465.863 110.037H465.019L464.131 110.143L463.244 110.269L462.357 110.438L461.47 110.65L460.583 110.924L459.696 111.241L458.809 111.6L457.922 112.022L457.014 112.487L456.106 112.994L455.198 113.564L454.289 114.177L453.402 114.831L452.515 115.528L452.156 115.824L452.895 119.246L453.74 123.427L454.564 127.736L455.367 132.192L456.148 136.754L456.908 141.443L457.626 146.237L458.323 151.137L458.999 156.122L459.654 161.191L460.266 166.344L460.858 171.582L461.407 176.883L461.935 182.248L462.442 187.654L462.907 193.125L463.35 198.637L463.751 204.171L464.131 209.746L464.469 215.343L464.786 220.94L465.061 226.558L465.314 232.176L465.525 237.794L465.694 243.391L465.842 248.967L465.948 254.522V256.169L465.906 256.106Z" fill="white"/>
<path fill-rule="evenodd" clip-rule="evenodd" d="M398.698 276.888C421.023 275.959 441.995 269.707 460.349 259.4L460.285 254.437L460.18 248.904L460.032 243.349L459.842 237.773L459.631 232.176L459.377 226.579L459.103 221.003L458.786 215.428L458.427 209.873L458.047 204.34L457.624 198.848L457.181 193.399L456.695 187.992L456.188 182.649L455.639 177.369L455.069 172.173L454.477 167.041L453.844 161.993L453.189 157.051L452.513 152.214L451.795 147.483L451.056 142.879L450.296 138.402L449.514 134.051L448.712 129.848L447.867 125.793L447.001 121.886L446.811 121.083L446.705 121.189L444.445 123.976L442.206 127.039L440.01 130.355L437.856 133.924L435.744 137.726L433.653 141.76L431.604 146.005L429.619 150.44L427.676 155.066L425.775 159.86L423.916 164.823L422.121 169.934L420.368 175.193L418.657 180.558L417.01 186.049L415.405 191.646L413.863 197.328L412.363 203.072L410.927 208.88L409.554 214.752L408.245 220.666L406.978 226.6L405.774 232.556L404.633 238.512L403.556 244.468L402.542 250.403L401.571 256.296L400.684 262.146L399.839 267.933L399.058 273.657L398.656 276.867L398.698 276.888Z" fill="white"/>
</svg>
