<svg width="100" height="100" viewBox="0 0 100 100" fill="none" xmlns="http://www.w3.org/2000/svg">
<mask id="mask0_3_49" style="mask-type:alpha" maskUnits="userSpaceOnUse" x="12" y="4" width="76" height="92">
<path fill-rule="evenodd" clip-rule="evenodd" d="M86.6667 31.0417C86.7708 31.25 86.875 31.4583 87.0833 31.6667C87.5 32.0833 87.5 32.9167 87.5 33.3333V83.3333C87.5 90.4167 82.0833 95.8333 75 95.8333H25C17.9167 95.8333 12.5 90.4167 12.5 83.3333V16.6667C12.5 9.58333 17.9167 4.16667 25 4.16667H58.3333C58.75 4.16667 59.5833 4.16667 60 4.58333C60.4167 4.58333 60.8333 5 61.25 5.41667L86.25 30.4167C86.4583 30.625 86.5625 30.8333 86.6667 31.0417ZM73.3333 29.1667L62.5 18.3333V29.1667H73.3333ZM75 87.5H25C22.5 87.5 20.8333 85.8333 20.8333 83.3333V16.6667C20.8333 14.1667 22.5 12.5 25 12.5H54.1667V33.3333C54.1667 35.8333 55.8333 37.5 58.3333 37.5H79.1667V83.3333C79.1667 85.8333 77.5 87.5 75 87.5ZM66.6667 58.3333C69.1667 58.3333 70.8333 56.6667 70.8333 54.1667C70.8333 51.6667 69.1667 50 66.6667 50H33.3333C30.8333 50 29.1667 51.6667 29.1667 54.1667C29.1667 56.6667 30.8333 58.3333 33.3333 58.3333H66.6667ZM70.8333 70.8333C70.8333 73.3333 69.1667 75 66.6667 75H33.3333C30.8333 75 29.1667 73.3333 29.1667 70.8333C29.1667 68.3333 30.8333 66.6667 33.3333 66.6667H66.6667C69.1667 66.6667 70.8333 68.3333 70.8333 70.8333ZM33.3333 33.3333C30.8333 33.3333 29.1667 35 29.1667 37.5C29.1667 40 30.8333 41.6667 33.3333 41.6667H41.6667C44.1667 41.6667 45.8333 40 45.8333 37.5C45.8333 35 44.1667 33.3333 41.6667 33.3333H33.3333Z" fill="white"/>
</mask>
<g mask="url(#mask0_3_49)">
<rect width="100" height="100" fill="white"/>
</g>
</svg>
