<svg width="100" height="106" viewBox="0 0 100 106" fill="none" xmlns="http://www.w3.org/2000/svg">
<mask id="mask0_631_14481" style="mask-type:alpha" maskUnits="userSpaceOnUse" x="8" y="4" width="84" height="98">
<path fill-rule="evenodd" clip-rule="evenodd" d="M79.1673 13.216H70.834V8.81066C70.834 6.16743 69.1673 4.40527 66.6673 4.40527C64.1673 4.40527 62.5006 6.16743 62.5006 8.81066V13.216H37.5007V8.81066C37.5007 6.16743 35.834 4.40527 33.334 4.40527C30.834 4.40527 29.1673 6.16743 29.1673 8.81066V13.216H20.834C13.7507 13.216 8.33398 18.943 8.33398 26.4322V88.1075C8.33398 95.5967 13.7507 101.324 20.834 101.324H79.1673C86.2506 101.324 91.6673 95.5967 91.6673 88.1075V26.4322C91.6673 18.943 86.2506 13.216 79.1673 13.216ZM20.834 22.0268H29.1673V26.4322C29.1673 29.0754 30.834 30.8376 33.334 30.8376C35.834 30.8376 37.5007 29.0754 37.5007 26.4322V22.0268H62.5007V26.4322C62.5007 29.0754 64.1673 30.8376 66.6673 30.8376C69.1673 30.8376 70.834 29.0754 70.834 26.4322V22.0268H79.1673C81.6673 22.0268 83.334 23.789 83.334 26.4322V39.6483H16.6673V26.4322C16.6673 23.789 18.334 22.0268 20.834 22.0268ZM20.834 92.5129H79.1673C81.6673 92.5129 83.334 90.7508 83.334 88.1075V48.4591H16.6673V88.1075C16.6673 90.7508 18.334 92.5129 20.834 92.5129Z" fill="white"/>
</mask>
<g mask="url(#mask0_631_14481)">
<rect width="100" height="105.729" fill="white"/>
</g>
</svg>
