<svg width="100" height="100" viewBox="0 0 100 100" fill="none" xmlns="http://www.w3.org/2000/svg">
<mask id="mask0_631_14461" style="mask-type:alpha" maskUnits="userSpaceOnUse" x="0" y="0" width="101" height="96">
<path fill-rule="evenodd" clip-rule="evenodd" d="M17.418 8.33333H4.16667C1.86548 8.33333 0 6.46785 0 4.16667C0 1.86548 1.86548 0 4.16667 0H20.8333C22.8193 0 24.5292 1.40161 24.919 3.34893L28.4185 20.8333H95.8333C98.4475 20.8333 100.416 23.2127 99.9262 25.7805L93.2535 60.7701C92.0739 66.709 86.8073 70.9486 80.8333 70.8333L40.4132 70.8326C34.3593 70.9486 29.0928 66.709 27.9144 60.7761L20.9533 25.9967C20.9251 25.8816 20.9016 25.7647 20.8831 25.6461L17.418 8.33333ZM29.1667 87.5068C29.1667 92.5109 32.4973 95.847 37.4932 95.847C42.4891 95.847 45.8197 92.5109 45.8197 87.5068C45.8197 82.5027 42.4891 79.1667 37.4932 79.1667C32.4973 79.1667 29.1667 82.5027 29.1667 87.5068ZM75 87.5C75 92.5 78.3306 95.8333 83.3265 95.8333C88.3225 95.8333 91.6531 92.5 91.6531 87.5C91.6531 82.5 88.3225 79.1667 83.3265 79.1667C78.3306 79.1667 75 82.5 75 87.5ZM36.0868 59.1466L30.0864 29.1667H90.797L85.0738 59.1778C84.6866 61.1262 82.9311 62.5394 80.9132 62.5008L40.3333 62.5C38.2355 62.5394 36.48 61.1262 36.0868 59.1466Z" fill="white"/>
</mask>
<g mask="url(#mask0_631_14461)">
<rect width="100" height="100" fill="white"/>
</g>
</svg>
