<svg width="100" height="106" viewBox="0 0 100 106" fill="none" xmlns="http://www.w3.org/2000/svg">
<mask id="mask0_631_14471" style="mask-type:alpha" maskUnits="userSpaceOnUse" x="8" y="8" width="84" height="89">
<path fill-rule="evenodd" clip-rule="evenodd" d="M12.5007 8.81079H41.6673C44.1673 8.81079 45.834 10.5729 45.834 13.2162V44.0538C45.834 46.6971 44.1673 48.4592 41.6673 48.4592H12.5007C10.0007 48.4592 8.33398 46.6971 8.33398 44.0538V13.2162C8.33398 10.5729 10.0007 8.81079 12.5007 8.81079ZM16.6673 39.6485H37.5007V17.6216H16.6673V39.6485ZM87.5006 8.81079H58.334C55.834 8.81079 54.1673 10.5729 54.1673 13.2162V44.0538C54.1673 46.6971 55.834 48.4592 58.334 48.4592H87.5006C90.0006 48.4592 91.6673 46.6971 91.6673 44.0538V13.2162C91.6673 10.5729 90.0006 8.81079 87.5006 8.81079ZM62.5007 39.6485H83.334V17.6216H62.5007V39.6485ZM87.5006 57.27H58.334C55.834 57.27 54.1673 59.0321 54.1673 61.6754V92.5131C54.1673 95.1563 55.834 96.9184 58.334 96.9184H87.5006C90.0006 96.9184 91.6673 95.1563 91.6673 92.5131V61.6754C91.6673 59.0321 90.0006 57.27 87.5006 57.27ZM62.5007 88.1077H83.334V66.0808H62.5007V88.1077ZM41.6673 57.27H12.5007C10.0007 57.27 8.33398 59.0321 8.33398 61.6754V92.5131C8.33398 95.1563 10.0007 96.9184 12.5007 96.9184H41.6673C44.1673 96.9184 45.834 95.1563 45.834 92.5131V61.6754C45.834 59.0321 44.1673 57.27 41.6673 57.27ZM16.6673 88.1077H37.5007V66.0808H16.6673V88.1077Z" fill="white"/>
</mask>
<g mask="url(#mask0_631_14471)">
<rect width="100" height="105.729" fill="white"/>
</g>
</svg>
