<svg width="100" height="100" viewBox="0 0 100 100" fill="none" xmlns="http://www.w3.org/2000/svg">
<path fill-rule="evenodd" clip-rule="evenodd" d="M79.166 49.9999C79.166 47.4999 80.8327 45.8333 83.3327 45.8333C85.8327 45.8333 87.4994 47.4999 87.4994 49.9999V79.1666C87.4994 86.2499 82.0827 91.6666 74.9994 91.6666H16.666C9.58268 91.6666 4.16602 86.2499 4.16602 79.1666V20.8333C4.16602 13.7499 9.58268 8.33325 16.666 8.33325H62.4994C64.9994 8.33325 66.666 9.99992 66.666 12.4999C66.666 14.9999 64.9994 16.6666 62.4994 16.6666H16.666C14.166 16.6666 12.4993 18.3333 12.4993 20.8333V79.1666C12.4993 81.6666 14.166 83.3333 16.666 83.3333H74.9994C77.4994 83.3333 79.166 81.6666 79.166 79.1666V49.9999ZM48.7494 61.2499L94.5827 15.4166C96.2494 13.7499 96.2494 11.2499 94.5827 9.58325C92.916 7.91659 90.416 7.91659 88.7494 9.58325L45.8327 52.4999L36.2494 42.9166C34.5827 41.2499 32.0827 41.2499 30.416 42.9166C28.7493 44.5833 28.7493 47.0833 30.416 48.7499L42.916 61.2499C43.7494 62.0833 44.5827 62.4999 45.8327 62.4999C47.0827 62.4999 47.916 62.0833 48.7494 61.2499Z" fill="white"/>
<mask id="mask0_631_14455" style="mask-type:alpha" maskUnits="userSpaceOnUse" x="4" y="8" width="92" height="84">
<path fill-rule="evenodd" clip-rule="evenodd" d="M79.166 49.9999C79.166 47.4999 80.8327 45.8333 83.3327 45.8333C85.8327 45.8333 87.4994 47.4999 87.4994 49.9999V79.1666C87.4994 86.2499 82.0827 91.6666 74.9994 91.6666H16.666C9.58268 91.6666 4.16602 86.2499 4.16602 79.1666V20.8333C4.16602 13.7499 9.58268 8.33325 16.666 8.33325H62.4994C64.9994 8.33325 66.666 9.99992 66.666 12.4999C66.666 14.9999 64.9994 16.6666 62.4994 16.6666H16.666C14.166 16.6666 12.4993 18.3333 12.4993 20.8333V79.1666C12.4993 81.6666 14.166 83.3333 16.666 83.3333H74.9994C77.4994 83.3333 79.166 81.6666 79.166 79.1666V49.9999ZM48.7494 61.2499L94.5827 15.4166C96.2494 13.7499 96.2494 11.2499 94.5827 9.58325C92.916 7.91659 90.416 7.91659 88.7494 9.58325L45.8327 52.4999L36.2494 42.9166C34.5827 41.2499 32.0827 41.2499 30.416 42.9166C28.7493 44.5833 28.7493 47.0833 30.416 48.7499L42.916 61.2499C43.7494 62.0833 44.5827 62.4999 45.8327 62.4999C47.0827 62.4999 47.916 62.0833 48.7494 61.2499Z" fill="white"/>
</mask>
<g mask="url(#mask0_631_14455)">
<rect width="100" height="100" fill="white"/>
</g>
</svg>
