<svg width="105" height="104" viewBox="0 0 105 104" fill="none" xmlns="http://www.w3.org/2000/svg">
<mask id="mask0_3_21" style="mask-type:alpha" maskUnits="userSpaceOnUse" x="13" y="8" width="79" height="88">
<path fill-rule="evenodd" clip-rule="evenodd" d="M30.9883 30.4875C30.9883 18.4125 40.4758 8.92505 52.5508 8.92505C64.6258 8.92505 74.1133 18.4125 74.1133 30.4875C74.1133 42.5625 64.6258 52.05 52.5508 52.05C40.4758 52.05 30.9883 42.5625 30.9883 30.4875ZM91.3633 82.2375V90.8625C91.3633 93.4501 89.6383 95.175 87.0508 95.175C84.4633 95.175 82.7383 93.4501 82.7383 90.8625V82.2375C82.7383 74.9063 77.132 69.3 69.8008 69.3H35.3008C27.9695 69.3 22.3633 74.9063 22.3633 82.2375V90.8625C22.3633 93.4501 20.6383 95.175 18.0508 95.175C15.4633 95.175 13.7383 93.4501 13.7383 90.8625V82.2375C13.7383 70.1625 23.2258 60.675 35.3008 60.675H69.8008C81.8758 60.675 91.3633 70.1625 91.3633 82.2375ZM52.5508 43.425C45.2195 43.425 39.6133 37.8188 39.6133 30.4875C39.6133 23.1563 45.2195 17.55 52.5508 17.55C59.882 17.55 65.4883 23.1563 65.4883 30.4875C65.4883 37.8188 59.882 43.425 52.5508 43.425Z" fill="white"/>
</mask>
<g mask="url(#mask0_3_21)">
<rect x="0.800781" y="0.300049" width="103.5" height="103.5" fill="white"/>
</g>
</svg>
